<svg xmlns="http://www.w3.org/2000/svg">

    <symbol id="type-upgrade" viewBox="0 0 282.85 300">
        <polygon points="282.85 141.42 229.81 194.45 178.92 143.56 178.92 300 103.92 300 103.92 143.57 53.04 194.45 0 141.42 141.42 0 282.85 141.42"/>
    </symbol>

    <symbol id="type-operation" viewBox="0 0 300 291.65">
        <polygon points="180.62 123.22 225.54 168.14 0 291.65 119.38 168.45 74.46 123.52 300 0 180.62 123.22"/>
    </symbol>

    <symbol id="type-event" viewBox="0 0 300 291.65">
        <polygon points="180.62 123.22 225.54 168.14 0 291.65 119.38 168.45 74.46 123.52 300 0 180.62 123.22"/>
    </symbol>

    <symbol id="type-identity" viewBox="0 0 226.06 300">
        <path d="m113.01,0c-34.51,0-62.5,27.98-62.5,62.5s27.99,62.5,62.5,62.5,62.5-27.98,62.5-62.5S147.53,0,113.01,0Zm79.87,185.93c-39.4-48.64-122.77-47.75-161.15,1.72-15.93,16.02-56.86,108.26-9.8,112.35,0,0,182.16,0,182.16,0,47.76-4.31,5.21-98.49-11.21-114.07Z"/>
    </symbol>

    <symbol id="type-agenda" viewBox="0 0 300 300">
        <path d="m75,300H0v-150h75v150ZM300,0h-75v300h75V0Zm-112.5,75h-75v225h75V75Z"/>
    </symbol>

    <symbol id="type-ice" viewBox="0 0 269.72 281.25">
        <path d="m134.86,281.25C58.77,232.8-10.37,183.29,1.29,18.49,49.31,54.55,94.37,36.58,134.86,0c40.49,36.58,85.55,54.55,133.57,18.49,11.66,164.8-57.48,214.31-133.57,262.76Z"/>
    </symbol>

    <symbol id="type-asset" viewBox="0 0 290.99 309.37">
        <path d="m38.23,42.56l102.74,102.74V0c-39.31,2.39-75.02,18.05-102.74,42.56Zm6.93,35.22l-7.78-7.78C14.11,96.56,0,131.36,0,169.45s14.11,72.88,37.38,99.44c24.12-24.11,90.3-90.29,99.45-99.44L45.16,77.78Zm115.81-47.98v143.79c-13.52,13.54-86.55,86.57-101.67,101.68,87.32,78.31,233.41,12.81,231.67-105.82.19-73.39-57.27-134.65-130-139.65Z"/>
    </symbol>

    <symbol id="type-hardware" viewBox="0 0 300 300">
        <path d="m300,176.6v-53.2l-31.98-9.29c-2.39-7.68-5.52-15.04-9.29-21.99l16.15-29.38-37.62-37.62-29.82,16.39c-6.76-3.55-13.89-6.5-21.32-8.76L176.6,0h-53.2l-9.52,32.75c-7.43,2.26-14.56,5.21-21.32,8.76l-29.82-16.39L25.12,62.74l16.15,29.39c-3.76,6.95-6.89,14.3-9.28,21.97L0,123.4v53.2l31.32,9.1c2.36,8.09,5.52,15.85,9.41,23.16l-15.61,28.4,37.62,37.62,27.96-15.37c7.5,4.11,15.48,7.47,23.83,9.96l8.87,30.53h53.2l8.87-30.53c8.35-2.49,16.33-5.84,23.83-9.95l27.96,15.36,37.62-37.62-15.6-28.39c3.88-7.32,7.05-15.07,9.41-23.17l31.31-9.1Zm-150,29.41c-30.37,0-55-24.62-55-55s24.63-55,55-55,55,24.63,55,55-24.62,55-55,55Z"/>
    </symbol>

    <symbol id="type-program" viewBox="0 0 300 220.08">
        <polygon points="236.42 61.12 236.42 56.65 193.21 56.65 193.21 82.84 236.42 82.84 236.42 77.02 283.44 77.02 283.44 103.21 236.42 103.21 236.42 98.74 193.21 98.74 193.21 124.71 236.42 124.71 236.42 119.56 283.44 119.56 283.44 145.75 236.42 145.75 236.42 140.6 193.21 140.6 193.21 166.8 236.42 166.8 236.42 161.65 300 161.65 300 204.18 219.86 204.18 219.86 199.03 209.78 199.03 209.78 220.08 46.35 220.08 41.87 214.93 0 173.06 0 0 209.78 0 209.78 23.74 219.86 23.74 219.86 18.59 300 18.59 300 61.12 236.42 61.12"/>
    </symbol>

    <symbol id="type-resource" viewBox="0 0 325.24 317.62">
        <path d="m325.24,272.62c0,24.85-20.14,45-45,45s-45-20.15-45-45c0-5.8,1.1-11.34,3.09-16.43l-51.05-39.22c-9.87,8.23-22.57,13.18-36.42,13.18-31.43,0-56.92-25.49-56.92-56.92,0-2.04.11-4.05.31-6.03l-52.78-17.94c-4.4,3.86-10.16,6.2-16.47,6.2-13.81,0-25-11.19-25-25s11.19-25,25-25c12.15,0,22.27,8.66,24.52,20.14l52.78,17.93c10.01-16.32,28.01-27.21,48.56-27.21,11.19,0,21.62,3.23,30.42,8.81l58.4-58.4c-3.56-6.44-5.59-13.85-5.59-21.73,0-24.85,20.14-45,45-45s45,20.15,45,45-20.15,45-45,45c-7.88,0-15.29-2.03-21.73-5.59l-58.4,58.4c5.58,8.8,8.81,19.23,8.81,30.42,0,8.54-1.88,16.65-5.26,23.92l51.07,39.22c7.46-5.5,16.68-8.75,26.66-8.75,24.86,0,45,20.14,45,45Z"/>
    </symbol>

    <symbol id="faction-weyland-consortium" viewBox="0 0 300 277.09">
        <path d="m109.07,82.64l-11.23,30.04-9.08-23.94,61.24-70.19,61.24,70.19-9.08,23.94-11.23-30.04h-81.86Zm162.1,57.54l27.22.09-52.21,136.82H53.82L1.61,140.27l27.22-.09L0,64.13h60.14l28.76,75.87,6.23-.02-20.37-53.75L150,0l75.24,86.23-20.37,53.75,6.23.02,28.76-75.87h60.14l-28.83,76.05Zm-173.31-16.15l13.99-37.38h76.3l13.99,37.38,13.7-36.11L150,12.47l-65.84,75.45,13.7,36.11Zm84.61-29.18h-64.94l-16.87,45.11,6.24-.02,14.68-39.26h56.84l14.68,39.26,6.24.02-16.87-45.11Zm-107.19,145.25h45.73l28.99-77.52,28.99,77.52h45.73l63.66-167.95h-42.99l-.05.13-43.34,114.35-.07-.2-29.08-77.73h-45.7l-29.08,77.73-.07.2-43.34-114.35-.05-.13H11.62l63.66,167.95Zm193.99-94.91l-1.51,4,17.56.05-45.35,118.83H60.03L14.68,149.24l17.56-.05-1.51-4-21.86.06,48.4,126.83h185.46l48.4-126.83-21.86-.06Z"/>
    </symbol>

    <symbol id="faction-anarch" viewBox="0 0 300 284.99">
        <path d="m199.64,139.67l-3.5,8.1,26.29-2.37c12.75,10.29,25.74,20.34,38.88,30.07l-67.43-17.93-.36,7.93,106.48,28.32-17.35-12.38c-19.63-14.01-38.96-28.74-57.78-44.01l-19.85,1.78-5.38.48Zm-127.68-2.89l4.04-7.31-11.52-1.43c.23-.84.46-1.67.69-2.51,7.85-29.29,14.66-59.18,20.3-89.09l15.26,58.95,4.45-13.78L84.04,0l-3.07,17.71c-6.15,35.46-13.99,71.06-23.3,105.81-.99,3.69-2.02,7.4-3.08,11.11l12.59,1.57,4.78.59Zm-.54,52.94l-43.98,48.1c11.06-28.9,21.93-58.86,30.96-88.67l6.3.78,4.04-7.32-8.09-1.01-7.8-.97c-11.27,38.28-25.83,77.04-40.08,113.61l-7.55,19.37,70.94-77.58-4.73-6.32Zm47.85-107.65l-10.77-41.61c25.75,27.02,52.96,53.02,81.07,77.43,3.04,2.64,6.11,5.27,9.18,7.89l-12.3,1.11,10.96,6.8,7.27-.65,13.39-1.21c-7.91-6.51-15.72-13.11-23.42-19.8-31.71-27.54-62.28-57.11-90.86-87.9l-10.45-11.25,16.92,65.36,9,3.82Zm73.63,97.21l54.6,14.22c-18.68,2.27-37.28,5.39-55.67,9.36l-.36,8.02c25.73-5.64,51.86-9.61,78.09-11.86l22.48-1.93-98.78-25.72-.36,7.92Zm-95.07,51.51c-23.8,8.98-44.04,18.14-61.22,26.59l47.58-50.62-4.72-6.3L0,284.99l20.37-10.65c19.96-10.44,45.17-22.86,76.92-35.03l.53-8.5Zm87.61-58.25l-3.48,8.06-18.62-9.74-1.99,4.39-22.92-10.23-4.78,9.22-29.17-13.01,8.5-16.06,8.9,2.82,14.35-5.77.7-6.32-44.95-19.29-27.85,50.42,41.96,56.03-2.39,38.27,34.88-13.44-.06,11.89,33.48-13.45-1.5-22.14,13.31-15.63,1.64-36.01Zm-63.26-16.31l-5.38-1.71-1.59,3,14.91,6.65,4.78-9.22,22.56,10.07,2.19-4.84,18.49,9.67,13.28-30.74-17.27-10.72,2.52-5.56-20.32-7.62,2.41-4.46-25.15-8.88,2.13-4.37-24.23-10.29-8.32,25.77,42.05,18.05-1.84,16.65-21.24,8.55Z"/>
    </symbol>

    <symbol id="faction-shaper" viewBox="0 0 300 300">
        <path d="m223.42,226.58l2.21-2.2,8.69-8.69,20.87-20.87,44.81-44.81-31.37-31.37-1.76,1.76-6.31,6.31-6.31-6.31-10.8-10.8-2.55,2.55-.24.24-2.49,2.49,10.8,10.8,6.31,6.31-6.31,6.31-1.2,1.2,19.9,19.01-59.06,60.63c1.71.98,3.4,1.93,5.1,2.83,3.44,1.83,6.64,3.41,9.7,4.62m-72.7,52l-29.08-30.12v23.19l28.35,28.35,42.42-42.42c-4.39-2.94-8.59-5.93-12.59-8.89l-29.11,29.89Zm-94.79-98.2l-21.12-21.88,27.88-26.88c-6.09-8.02-12.28-16.71-18.2-26.1L0,150l30.38,30.38h25.55Zm20.24,72.53h-26.53v-53.15h26.5l-26.5,26.62,26.53,26.53,26.1-26.76v26.76h-26.1Zm13.49-26.76l-13.49,14.15-13.92-13.92,13.89-14.01,13.52,13.78Zm-13.52-26.39h26.13v26.39l-26.13-26.39Zm32.8-14.06l-3.6,3.6H38.56v5.96h0v61.7h0v6.51h74.17v-66.77l3.51-3.51c-2.46-2.47-4.89-4.97-7.3-7.49m63.05-75.66c-6.83-6.79-13.77-13.44-20.77-19.95-5.57-5.18-11.32-10.09-17.17-14.85l-3.68,3.54c2.49,1.97,4.95,4.01,7.37,6.1,10.56,9.14,21.1,18.4,31.26,28.15l2.99-2.99Zm59.49,68.12c-11.85-15.41-24.05-30.53-36.96-44.67-.95-1.04-1.91-2.06-2.86-3.09l-2.85,2.85c14.73,15.94,28.44,33.03,40.26,52.13l4.44-4.56c-.67-.89-1.34-1.77-2.02-2.65m32.42,54.21c-3.25-7.87-6.99-15.36-11.09-22.55l-8.1,8.1c.41,1.62.77,3.28,1.04,4.97,1.7,10.5-2.48,16.27-11.59,15.84-6.29-.29-12.21-2.27-17.97-4.91-.58-.26-1.15-.54-1.73-.81-.01,0-.03-.01-.04-.02-.55-.26-1.09-.53-1.64-.81-.04-.02-.09-.05-.13-.07-.51-.26-1.01-.51-1.51-.77-.07-.04-.15-.08-.22-.11-.56-.29-1.11-.58-1.66-.88-1.26-.67-2.5-1.35-3.74-2.05-.03-.02-.06-.04-.09-.05-1.21-.69-2.42-1.38-3.62-2.09-16.27-9.63-31.32-21.65-45.86-34.61-6.68-5.96-13.22-12.1-19.61-18.43h0c-1.22-1.21-2.44-2.43-3.65-3.65-.03-.03-.06-.06-.09-.09-1.21-1.23-2.42-2.46-3.61-3.7-13.01-13.47-25.34-27.83-36.8-43.29-2.77-3.73-5.49-7.5-8.12-11.34-.71-1.03-1.41-2.07-2.1-3.11-.1-.16-.21-.32-.31-.47-1.05-1.59-2.08-3.19-3.09-4.81-.09-.14-.17-.27-.26-.41-1.74-2.81-3.42-5.67-5.01-8.59-.02-.04-.04-.08-.06-.12-.97-1.79-1.92-3.61-2.82-5.46-.02-.03-.03-.07-.05-.1-.91-1.86-1.79-3.74-2.62-5.66-.74-1.71-1.46-3.43-2.14-5.2-1.4-3.63-2.46-7.5-3.21-11.38-1.93-9.98,1.98-15.73,12.3-16,3.41.07,7.03.93,10.74,2.26l7.22-7.22c-8.85-5.5-17.99-10.35-27.53-14.21-7.34-2.97-14.82-5.29-22.64-4.89-9.95.51-14.83,7.23-13.88,18.95.05.66.13,1.33.22,1.99,1.22,9.4,4.58,17.89,8.45,26.12,4.68,9.95,9.99,19.36,15.72,28.38.27.42.54.85.81,1.27.52.81,1.04,1.61,1.57,2.41.27.41.54.82.81,1.23.55.83,1.1,1.65,1.65,2.47.21.31.41.61.62.91,2.81,4.13,5.69,8.18,8.65,12.18.08.11.17.23.25.34,4.29,5.79,8.7,11.46,13.19,17.05,12.17,15.15,24.91,29.53,38.19,43.17.86.88,1.72,1.76,2.58,2.64,15.15,15.38,31,29.8,47.53,43.25,6.4,5.21,12.88,10.26,19.49,15.06.51.37,1.03.75,1.54,1.12.83.59,1.66,1.18,2.49,1.77.23.16.46.32.69.48.97.68,1.94,1.35,2.92,2.01.07.05.14.09.21.14,1.04.71,2.09,1.41,3.14,2.11h0c9.41,6.22,19.11,11.82,29.26,16.45,8.58,3.92,17.31,7.2,24.49,7.23,13.78-.28,19.29-7.49,17.06-21.02-1.18-7.2-3.47-14.36-6.21-21M87.26,62.74h0l-12.28,12.28c4.23,10.59,9.9,20.29,16,29.32l8.04-7.75,51.69-49.84,43.24,41.31,22.05-22.05L150,0l-42.69,42.69-20.05,20.05Zm69.36,75.26l-20.94,20.94c2.41,2.49,4.86,4.97,7.35,7.44l21.46-21.46,3.9-3.9,14.29-14.29,2.85-2.85,6.35-6.35,22.33,22.33,9.03-9.03,10.28,10.28,7.8-7.8,1.34-1.34-17.11-17.11,8.8-8.8.12-.12.12-.12,2.95-2.95,5.91-5.91,17.11,17.11,9.14-9.14-10.28-10.28,9.05-9.05-22.33-22.33,8.54-8.54-7.4-7.4-86.77,86.77-3.9,3.9Z"/>
    </symbol>

    <symbol id="faction-nbn" viewBox="0 0 300 299.97">
        <path d="m83.24,180.46c-4.31-9.44-6.59-19.77-6.59-30.46,0-19.59,7.63-38.01,21.48-51.86,6.44-6.44,13.87-11.53,21.94-15.14l4.33-11.44c-33.03,10.77-56.91,41.82-56.91,78.45,0,15.3,4.17,29.62,11.42,41.9l4.32-11.44Zm135.22-56.86c3.2,8.31,4.87,17.23,4.87,26.4,0,19.59-7.63,38.01-21.48,51.86-5.33,5.33-11.34,9.73-17.83,13.14l-4.55,12.06c31-11.87,53.01-41.89,53.01-77.07,0-13.88-3.43-26.96-9.49-38.45l-4.54,12.05Zm-148.45,91.85c-6.27-7.64-11.38-16.09-15.24-25.23-5.39-12.73-8.12-26.27-8.12-40.22s2.73-27.49,8.12-40.22c5.2-12.3,12.66-23.36,22.15-32.85,9.49-9.49,20.55-16.95,32.85-22.15,7.59-3.21,15.46-5.47,23.53-6.78l3.68-9.75c-56,6.45-99.49,54.02-99.49,111.75,0,28.91,10.91,55.27,28.83,75.2l3.68-9.75ZM232.15,87.29c5.28,6.9,9.67,14.42,13.08,22.49,5.39,12.73,8.12,26.27,8.12,40.22s-2.73,27.49-8.12,40.22c-5.2,12.3-12.66,23.36-22.15,32.85-9.49,9.49-20.55,16.95-32.85,22.15-6.44,2.72-13.08,4.77-19.88,6.12l-3.74,9.93c54.26-8.03,95.9-54.79,95.9-111.28,0-27.69-10.01-53.05-26.61-72.65l-3.74,9.94ZM51.87,263.45l6.97-18.43c-.66-.63-1.31-1.26-1.96-1.91-12.1-12.1-21.6-26.18-28.23-41.86-6.86-16.22-10.34-33.47-10.34-51.25s3.48-35.03,10.34-51.25c6.63-15.68,16.13-29.76,28.23-41.86,12.1-12.1,26.18-21.6,41.86-28.23,14.54-6.15,29.9-9.57,45.74-10.22L151.45.02c-.48,0-.96-.02-1.44-.02C67.16,0,0,67.16,0,150c0,45.32,20.1,85.95,51.87,113.45M250.48,38.63l-7.01,18.61c11.93,12.02,21.31,25.98,27.88,41.5,6.86,16.22,10.34,33.47,10.34,51.25s-3.48,35.03-10.34,51.25c-6.63,15.68-16.13,29.76-28.23,41.86-12.1,12.1-26.18,21.6-41.86,28.23-13.46,5.69-27.63,9.05-42.22,10.03l-7.01,18.6c81.91-1.08,147.98-67.81,147.98-149.97,0-44.19-19.11-83.92-49.52-111.37m-106.82,47.01c3.31,0,6.56,0,9.83.03,3.03-8.16,6.11-16.37,9.1-24.33l2.08-5.53c1.4-3.74,2.81-7.47,4.26-11.33l6.1-16.18,4.78,11.68c.2.49.36.88.52,1.27l3.21,8.06c4.74,11.91,9.64,24.22,14.44,36.36,5.27-.04,10.49-.04,15.58,0,7.89-20.98,15.91-42.28,23.68-62.88l5.11-13.56c-5.1,0-9.95.01-14.88-.03-4.4,11.74-8.91,23.64-13.27,35.15l-2.84,7.51c-.17.46-.36.87-.55,1.31-.09.21-.19.44-.31.7l-4.25,9.87-4.18-9.9c-.14-.34-.27-.64-.39-.92-.25-.58-.45-1.06-.65-1.54l-3.16-7.95c-4.46-11.21-9.06-22.79-13.56-34.22-5.44.05-11.1.05-16.88,0-6.04,16.03-12.18,32.25-18.13,47.95l-4.89,12.91c-1.82,4.79-3.63,9.59-5.47,14.48l-.42,1.11c1.75,0,3.46,0,5.17,0h0Zm11.39,9.21s-.05,0-.08,0c-5.68-.05-11.25-.04-17.16-.04-1.97,0-3.95,0-5.96,0h-6.63l5.11-13.53c1.85-4.89,3.66-9.69,5.48-14.48l4.89-12.91c6.13-16.17,12.46-32.9,18.66-49.36,1.13-2.99,3.41-4.56,6.59-4.53,6.75.07,13.36.07,19.64,0,3.23-.02,5.54,1.53,6.72,4.53,4.59,11.68,9.31,23.54,13.88,35.02,4.33-11.44,8.79-23.22,13.15-34.83C220.81.77,223.86-.03,226.17,0c5.53.07,10.96.06,16.71.05,1.99,0,3.98,0,5.99,0h6.31l-1.95,6c-.07.21-.13.41-.19.6-.14.46-.29.93-.48,1.43l-6.76,17.94c-7.96,21.11-16.19,42.95-24.26,64.43-1.38,3.68-4.22,4.43-6.31,4.41-6.15-.06-12.52-.06-18.94,0-2.05.02-4.85-.72-6.28-4.34-4.87-12.34-9.86-24.87-14.69-37.01-.7,1.85-1.39,3.69-2.08,5.53l-2.08,5.53c-3.16,8.42-6.44,17.13-9.61,25.71-1.4,3.77-4.3,4.58-6.51,4.58h0Zm-89.15,195.91c3.34,0,6.61,0,9.92.03,2.79-7.52,5.63-15.08,8.39-22.41l2.42-6.45c1.52-4.05,3.04-8.1,4.62-12.28l6.09-16.2,4.79,11.64c.2.49.37.88.52,1.28l3.54,8.91c4.63,11.64,9.41,23.65,14.09,35.52,5.03-.05,10.26-.05,15.6,0,7.72-20.58,15.59-41.43,23.2-61.61l5.6-14.84c-.28,0-.55,0-.83,0-4.61,0-9.37.02-14.08-.03-4.41,11.75-8.92,23.66-13.28,35.18l-2.82,7.45c-.17.45-.35.87-.55,1.31-.09.21-.19.44-.31.7l-4.21,9.81-4.22-9.81c-.14-.32-.27-.61-.38-.88-.26-.58-.47-1.07-.67-1.57l-2.48-6.23c-4.68-11.78-9.52-23.95-14.25-35.96-5.45.05-11.01.05-16.89,0-8.06,21.39-16.27,43.08-24.21,64.06l-4.69,12.39c1.71,0,3.4,0,5.07,0m52.97,9.21c-3.99,0-5.79-2.44-6.6-4.51-4.83-12.28-9.79-24.75-14.59-36.8v-.03c-.84,2.19-1.65,4.36-2.47,6.52l-2.42,6.45c-2.93,7.8-5.96,15.86-8.9,23.8-1.1,2.99-3.36,4.56-6.52,4.56h-.08c-5.69-.05-11.28-.04-17.19-.04-1.95,0-3.92,0-5.9,0h-6.63l9.38-24.81c8.12-21.46,16.52-43.65,24.75-65.49.78-2.06,2.53-4.51,6.51-4.51h.09c6.97.06,13.46.06,19.82,0,2.14-.04,5.02.72,6.47,4.39,4.62,11.72,9.34,23.61,13.93,35.16,4.34-11.45,8.8-23.24,13.15-34.86,1.17-3.11,3.55-4.73,6.86-4.7,5.09.06,10.29.05,15.31.05,1.81,0,3.62,0,5.43,0h8.47l-2.19,6.13c-.18.49-.34.97-.5,1.43-.34.96-.66,1.86-1,2.78l-6.38,16.92c-7.79,20.64-15.84,41.98-23.72,62.98-.79,2.11-2.59,4.61-6.73,4.57-6.26-.07-12.39-.07-18.22,0-.04,0-.08,0-.12,0m27.46-164.86c4.96.03,9.66.05,14.39-.08,3.15-.09,5.55-.86,7.32-2.37,1.71-1.46,1.66-2.71,1.43-3.63-.03-.12-.06-.16-.06-.16-.12-.14-.61-.42-2.46-.79l-3.39-.06c-4.76-.09-9.66-.17-14.52-.23-.91,2.42-1.8,4.84-2.71,7.33m5.97,9.19c-2.03,0-4.08-.01-6.18-.02-2.09-.01-4.2-.02-6.34-.02h-6.56l3.44-9.38c1.57-4.3,3.06-8.36,4.62-12.47.83-2.18,3.19-3.81,5.52-3.81h.05c5.64.05,11.36.16,16.89.26l3.68.07c.34,0,.65.04.96.1,2.53.48,8.44,1.61,9.99,7.78,1.21,4.78-.39,9.47-4.37,12.86-3.38,2.88-7.77,4.42-13.02,4.56-2.9.08-5.77.1-8.67.1m3.55,18.45h0,0Zm-22.9,7.75c.1,0,.2,0,.3,0,5.56.03,10.8.06,16.12-.08,2.91-.07,5.4-.93,7.42-2.55,1.38-1.1,2-2.82,1.71-3.72-.16-.51-.4-.86-2.96-1.41l-3.5-.05c-5.26-.08-10.67-.17-16.03-.22-1.02,2.65-2.03,5.3-3.06,8.03m7.01,9.19c-2.22,0-4.46-.01-6.76-.02-2.27-.01-4.56-.02-6.88-.02h-6.64l3.61-9.54c1.7-4.5,3.31-8.76,4.99-13.07.84-2.15,3.21-3.76,5.53-3.76h.04c6.12.05,12.33.15,18.33.24l3.81.06c.23,0,.59.02,1.02.1,2.72.55,8.32,1.7,10.22,7.69,1.47,4.64-.46,10.25-4.71,13.65-3.57,2.86-8.03,4.44-12.92,4.56-3.23.08-6.41.11-9.64.11m-41.4,11.61c3.19,0,6.38,0,9.57.01,12.35.02,25.12.04,37.66-.08,8.74-.08,16.24-1.45,22.93-4.18,8.03-3.28,12.92-7.64,15.38-13.73,1.85-5.35,1.98-9.69.37-12.9-1.37-2.73-4.09-4.44-7.8-5.91-.44-.18-.68-.31-1.45-.63l-9.26-3.6,11.57-4.26c3.96-1.73,17.75-7.98,19.24-20.84.9-7.81-2.1-12.58-9.72-15.45-4.96-1.87-10.53-2.72-18.05-2.75-6.67-.03-13.46-.03-20.02-.03-6.06,0-12.31,0-18.49-.02-8.3,22.02-16.76,44.37-24.95,65.99l-6.96,18.37Zm23.62,9.2c-4.73,0-9.42,0-14.06-.02-5,0-10.01-.02-15.01-.01-.43,0-.8-.04-1.12-.07-.12-.01-.25-.03-.41-.04l-6.05-.51,11.42-30.17c8.33-21.99,16.94-44.73,25.38-67.11,1.2-3.19,3.5-4.81,6.83-4.81h.05c6.58.03,13.28.03,19.76.03,6.58,0,13.38,0,20.07.03,8.66.04,15.21,1.07,21.24,3.34,11.6,4.36,16.99,13.04,15.6,25.08-.79,6.81-5.38,18.2-17.34,24.63,1.99,1.83,3.28,3.77,4.11,5.44,2.78,5.53,2.8,12.3.06,20.13l-.07.19c-3.38,8.49-10.08,14.68-20.47,18.92-7.78,3.17-16.38,4.77-26.3,4.86-7.87.08-15.83.1-23.7.1"/>
    </symbol>

    <symbol id="faction-haas-bioroid" viewBox="0 0 300 181.16">
        <path d="m276.93,0H23.07l-2.42,4.71C11.28,22.93.1,52.52,0,90.09c-.1,38,11.17,67.93,20.65,86.35l2.42,4.71h253.86l2.42-4.71c9.47-18.42,20.74-48.36,20.65-86.35-.1-37.57-11.28-67.16-20.65-85.38l-2.42-4.71Zm-5.3,8.68c6.88,13.37,19.58,42.34,19.68,81.43.1,39.62-12.8,68.98-19.68,82.36H28.37c-6.88-13.38-19.79-42.74-19.68-82.36.1-39.09,12.81-68.06,19.68-81.43h243.26m-4.99,101.59c-.21-1.38-.48-2.74-.83-4.05-.3-1.09-.68-2.14-1.1-3.16-.86-2.11-1.96-4.06-3.3-5.83-1.46-1.81-3.18-3.42-5.16-4.83-.18-.13-.35-.28-.54-.41,0,0-.01,0-.02-.01-.73-.5-1.49-.97-2.29-1.42.18-.1.33-.21.5-.32,1.51-.88,2.9-1.85,4.14-2.92,1.24-1.04,2.36-2.16,3.36-3.4,1.59-2.19,2.85-4.46,3.75-6.99.24-.67.47-1.34.66-2.04.38-1.4.66-2.86.88-4.34.31-2.04.49-4.16.49-6.33,0-5.18-.78-9.78-2.41-13.89-.22-.58-.46-1.15-.72-1.71-.22-.49-.46-.98-.71-1.45-1.98-3.96-4.72-7.25-7.95-10.05-2.43-2.03-5.24-3.68-8.34-5.01-1.7-.74-3.49-1.4-5.4-1.95-1.8-.52-3.68-.94-5.63-1.29-3.69-.67-7.65-1-11.91-1.03-.19,0-.38,0-.58,0h-53.59v32.87l-18.12,18.2-8.24,8.24s0,0,0,0h0s.02.01.02.02h0c3.89,2.39,6.52,6.66,6.52,11.55s-2.48,8.96-6.24,11.39c-2.1,1.35-4.59,2.14-7.27,2.14s-5.1-.77-7.19-2.09c-3.77-2.42-6.28-6.66-6.28-11.44,0-4.13,1.88-7.87,4.83-10.37,2.34-1.96,5.36-3.14,8.64-3.14.53,0,1.06.03,1.58.1l.64-.64,26.09-25.97v-30.86h-6.52v8.48l-3.59,3.59-6.07,5.99s.03.03.04.04h0s-.02,0-.02,0c0,0,0,0,0,0h0c2.26,1.95,3.69,4.82,3.69,8.03,0,5.84-4.75,10.59-10.59,10.59-2.18,0-4.21-.66-5.9-1.8-2.8-1.92-4.66-5.16-4.66-8.84,0-4.24,2.58-7.94,6.24-9.6,1.32-.59,2.78-.93,4.32-.93.08,0,.16,0,.24.01.63.03,1.19.12,1.74.23l9.41-9.41h0s.03-.03.03-.03v-6.36h-46.57v48.41h-34.21V27.88h-.04v-.03h-32.87v125.33h.03v.06h32.88v-51.7h34.21v51.65h.02v.06h30.34v.07h.26v-27.44l26.39-26.39h0,0c-.27-.16-.52-.36-.78-.54-3.48-2.45-5.77-6.47-5.77-11.04,0-2.84.88-5.47,2.39-7.65,2.46-3.54,6.56-5.85,11.14-5.85,3.57,0,6.83,1.41,9.27,3.7,2.61,2.47,4.24,5.94,4.24,9.81,0,3.26-1.16,6.25-3.08,8.58-2.5,2.98-6.26,4.89-10.43,4.89h-.76c-.27-.02-.55-.02-.82-.05l-26.67,26.67v25.32h12.32v-8.53l9.53-9.53s0,0,0,0l.06-.06s0,0-.01-.01h.02c-.92-.79-1.69-1.73-2.3-2.78-.88-1.54-1.4-3.33-1.4-5.23,0-.32.02-.63.05-.94,0-.03,0-.06,0-.1.21-2.1,1.04-4.02,2.28-5.58,1.94-2.42,4.92-3.97,8.25-3.97,5.84,0,10.59,4.75,10.59,10.59,0,4.37-2.66,8.13-6.45,9.74,0,0-.01,0-.02,0-.2.08-.41.15-.61.22-.12.04-.24.1-.37.13-.29.09-.6.17-.9.23-.04,0-.07.02-.11.03-.69.14-1.4.22-2.13.22-.14,0-.28-.02-.42-.02-.54-.03-1.13-.12-1.64-.22l-9.41,9.41v6.4h63.73c6.64,0,12.55-.73,17.86-2.29.09-.02.18-.05.27-.07.19-.06.37-.12.56-.18,1.94-.58,3.8-1.28,5.55-2.1,2.8-1.3,5.33-2.86,7.56-4.71,1.5-1.24,2.86-2.6,4.09-4.07,1.58-1.89,2.96-3.99,4.08-6.25.19-.38.38-.75.56-1.14.1-.22.18-.44.28-.66,1.93-4.37,2.85-9.41,2.85-15.03,0-2.27-.2-4.44-.54-6.53Zm-38.1-53.94c.84.46,1.57,1.01,2.21,1.62,1.77,1.73,2.81,3.99,3.1,6.78.05.53.08,1.07.08,1.64,0,1.67-.23,3.15-.67,4.47-.03.09-.05.19-.08.28-.83,2.3-2.37,4.08-4.64,5.41-3.51,2.13-9.53,3.14-17.69,3.14h-7.27v-26.54h7.21c4.83,0,8.84.37,12.07,1.09,2.3.53,4.22,1.23,5.68,2.12Zm-24.96,45.07h7.21c8.27,0,14.2,1.05,17.78,3.16,3.13,1.84,4.89,4.65,5.28,8.44.05.54.08,1.1.08,1.67,0,4.64-1.76,8.03-5.39,10.16-3.51,2.13-9.53,3.14-17.69,3.14h-7.27v-26.57Zm-39.18-7.19c-1.39-1.39-2.32-3.23-2.56-5.28-.04-.34-.07-.68-.07-1.04,0-.31.02-.61.05-.91.46-4.49,4.24-7.99,8.85-8.01,0,0,.02,0,.03,0h0c4.62,0,8.42,3.51,8.88,8.01.03.3.05.6.05.91,0,.35-.03.69-.07,1.04-.03.27-.07.53-.12.79-.02.08-.04.16-.06.24-.05.2-.09.4-.15.59-1.13,3.63-4.53,6.29-8.51,6.29-2.46,0-4.69-1.01-6.31-2.64Zm-27.77-4.39c.62,0,1.22.06,1.8.18,3.64.75,6.47,3.71,7.02,7.42.06.43.11.87.11,1.32,0,.34-.02.68-.06,1.02-.51,4.45-4.28,7.91-8.86,7.91-2.72,0-5.15-1.22-6.78-3.14-1.35-1.56-2.17-3.59-2.17-5.79,0-4.29,3.09-7.91,7.15-8.73,0,0,0,0,0,0,.08-.02.17-.02.25-.04.2-.03.4-.07.6-.09.31-.03.63-.05.95-.05Zm40.1,37.33s0,.02,0,.04c0,0,0,.01,0,.02,0,1.02-.31,1.96-.8,2.77-.05.08-.09.17-.14.25-.03.05-.08.09-.11.14-1,1.36-2.59,2.26-4.41,2.26-.68,0-1.32-.14-1.92-.36-1.42-.51-2.55-1.58-3.12-2.97-.14-.33-.25-.68-.32-1.04-.07-.36-.11-.72-.11-1.1,0-.61.12-1.19.31-1.74.47-1.39,1.47-2.52,2.76-3.16.09-.04.16-.1.25-.14.14-.06.29-.09.44-.14.19-.06.38-.14.59-.18.36-.08.74-.12,1.12-.12s.75.04,1.1.11c2.49.51,4.37,2.72,4.37,5.36Zm-31.48-77.42c1.28.98,2.12,2.49,2.12,4.22,0,.75-.16,1.47-.44,2.13-.82,1.99-2.77,3.39-5.06,3.39-3.02,0-5.47-2.45-5.47-5.47,0-1.52.62-2.89,1.62-3.88.05-.05.11-.08.15-.13.98-.9,2.27-1.46,3.7-1.46,1.28,0,2.44.46,3.38,1.2Z"/>
    </symbol>

    <symbol id="faction-criminal" viewBox="0 0 269.41 300">
        <path d="m60.49,1.11c-24.02.62-42.17,25.34-39.23,54.93C27.7,33.31,42.25,15.6,60.49,1.11m-6.07,25.99c11.76-9.63,25.6-16.26,39.41-20.32,5.46-1.77,10.97-3.18,16.49-4.21-23.02-8.95-47.68,6.71-60.88,28.39,1.64-1.33,3.3-2.61,4.98-3.86m62.64,24.95c39.12-17.95,60.94-21.57,74.16-22.41,1.59-.13,3.17-.22,4.72-.28,2.08-.08,4.12-.09,6.13-.04-19.33-11.9-41.65-18.78-64.67-18.78-.53,0-1.05.01-1.58.02-.53,0-1.05-.02-1.58-.02-42.49,0-82.62,23.4-105.87,58.68,14.66,8.3,46.42,2.24,88.69-17.16m60.66,193.49c-7.16-9.18-16.84-20.49-28.18-26.52-.49-.26-.99-.51-1.48-.75,1.48,3.48,2.98,6.73,4.47,9.75-1.13,1.02-5.22,4.55-11.56,6.19-.42-3.34-3.27-5.93-6.72-5.93s-6.3,2.59-6.72,5.93c-6.31-1.63-10.39-5.13-11.56-6.19,1.77-3.71,3.55-7.73,5.28-12.07-2.39.67-4.81,1.57-7.28,2.69l-7.22,3.28,2.79-7.43c7.19-19.17,10.19-35.5,8.92-48.56-.56-5.79-1.93-10.94-4.13-15.46-.12,20.99-17.23,38.02-38.25,38.02s-38.25-17.16-38.25-38.25c0-10.06,3.9-19.22,10.27-26.05-13.68-2.38-27.22-6.41-37-15.38-2.19,9.08-3.36,18.54-3.36,28.25,0,22.29,5.78,43.23,15.91,61.42,1.68-.31,3.42-.31,5.18-.49,20.18-2.12,34.79,17.31,30.55,30.61-1.46,4.57-2.87,7.57-4.94,11.55,1.58,4.85,3.57,9.5,5.93,13.93,1.24-.52,2.6-.81,4.03-.81,5.73,0,10.38,4.65,10.38,10.39,0,2.78-1.1,5.3-2.88,7.16,1.66,1.89,3.39,3.71,5.2,5.45,1.9-2.35,4.81-3.85,8.07-3.85,5.73,0,10.38,4.65,10.38,10.38,0,2.24-.72,4.32-1.93,6.02,2.14,1.26,4.34,2.44,6.59,3.52,1.34-4.18,5.26-7.2,9.88-7.2,5.73,0,10.38,4.65,10.38,10.38,0,1.23-.22,2.4-.61,3.5,2.61.55,2.57.67,5.26.99.27-4.71,6.06-9.23,10.71-9.24,5.11,0,10.44,4.53,10.71,9.24,2.69-.31,2.65-.44,5.26-.99-.39-1.09-.61-2.27-.61-3.5,0-5.74,4.65-10.38,10.38-10.38,4.63,0,8.54,3.03,9.89,7.2,2.25-1.08,4.45-2.26,6.59-3.52-1.21-1.7-1.93-3.77-1.93-6.02,0-5.73,4.65-10.38,10.38-10.38,3.26,0,6.16,1.5,8.07,3.85,1.81-1.74,3.54-3.56,5.2-5.45-1.15-1.21-2.02-2.69-2.49-4.35-6.16-4.66-12.48-11.85-19.56-20.93m-69.59-95.31c0-1.82-1.47-3.29-3.29-3.29h-12.21c-1.82,0-3.29,1.47-3.29,3.29s1.47,3.29,3.29,3.29h12.21c1.82,0,3.29-1.47,3.29-3.29m-28.77,16.56c0-1.82-1.47-3.29-3.29-3.29s-3.29,1.47-3.29,3.29v12.21c0,1.82,1.47,3.29,3.29,3.29s3.29-1.47,3.29-3.29v-12.21Zm-16.56-16.56c0-1.82-1.47-3.29-3.29-3.29h-12.21c-1.82,0-3.29,1.47-3.29,3.29s1.47,3.29,3.29,3.29h12.21c1.82,0,3.29-1.47,3.29-3.29m42.04,6.58h-4.55c-2.33,8.56-9.08,15.32-17.64,17.65v4.55c0,3.63-2.95,6.58-6.58,6.58s-6.58-2.95-6.58-6.58v-4.55c-8.56-2.33-15.32-9.08-17.64-17.64h-4.55c-3.63,0-6.58-2.95-6.58-6.58s2.95-6.58,6.58-6.58h4.55c2.12-7.8,7.91-14.1,15.4-16.92,1.87.18,3.72.34,5.53.52v6.42c0,1.82,1.47,3.29,3.29,3.29s3.29-1.47,3.29-3.29v-5.7c4.48.59,8.67,1.42,12.44,2.91.15.06.3.12.45.19,3.83,3.24,6.69,7.61,8.04,12.59h4.55c3.63,0,6.58,2.95,6.58,6.58s-2.95,6.58-6.58,6.58m134.34,38.22c-6.66,0-12.08-5.42-12.08-12.08,0-2.72.9-5.23,2.43-7.25l-13.15-13.15c-.44.31-.88.61-1.34.9-5.42,3.4-11.69,4.78-18.01,5.29v17.26l18.18,18.18c.62.62.96,1.45.96,2.32v11.74c5.07,1.44,8.79,6.1,8.79,11.62s-3.4,9.77-8.12,11.41c-.61.21-1.23.37-1.88.49-.03,0-.06.01-.09.02-.3.05-.61.09-.91.12-.05,0-.1,0-.15.01-.31.02-.62.04-.94.04-6.66,0-12.08-5.42-12.08-12.08,0-5.52,3.73-10.19,8.79-11.62v-10.38l-18.18-18.18c-.62-.62-.96-1.45-.96-2.33v-18.35c-.44,0-.88,0-1.32,0-8.27-.03-16.55-1.14-24.43-3.69-2.05-.67-4.15-1.38-6.07-2.38-1.01-.54,5.34-10.07,6.03-11.04,4.37-6.18,10.02-11.75,17-14.58,2.9-1.17,5.83-2.27,8.78-3.31v-46.38l9.65-9.65c-.98-1.74-1.54-3.75-1.54-5.89,0-6.66,5.42-12.08,12.08-12.08s12.08,5.42,12.08,12.08-5.42,12.08-12.08,12.08c-2.14,0-4.15-.56-5.89-1.54l-7.72,7.72v41.49c4.15-1.28,8.35-2.4,12.56-3.36v-9.93c0-.87.35-1.71.96-2.32l17.74-17.74c-.97-1.74-1.53-3.74-1.53-5.87,0-6.66,5.42-12.08,12.08-12.08s12.08,5.42,12.08,12.08-5.42,12.08-12.08,12.08c-2.15,0-4.16-.56-5.91-1.55l-16.77,16.77v7.22c6.06-1.11,12.16-1.87,18.25-2.21.02,0,.04,0,.06,0-.2,0-3.08,14.9-3.62,16.43-2.14,6.06-5.18,12.06-9.55,16.83l13.51,13.51c1.35-.53,2.82-.82,4.36-.82,6.66,0,12.08,5.42,12.08,12.08s-5.42,12.08-12.08,12.08m12.08-128.62h0c-13.25-20.12-32.08-29.31-57.55-28.13-25.57,1.19-53.9,12.98-72.99,21.74-22.25,10.21-41.76,16.9-57.98,19.88-20.49,3.76-35.33,1.38-44.11-7.08-6.31-6.09-9.3-15.11-8.88-26.83.18-5.15,1.04-10.9,2.55-17.22-2.77,4.73-5.08,9.39-6.93,13.96C.77,54.07-.88,64.64.44,74.16c1.76,12.63,8.69,23.06,20.61,31,8.3,5.53,24.77,8.22,40.7,10.83,16.8,2.75,34.17,5.59,44.35,12.1,13.87,8.86,21.67,21.88,23.19,38.69.97,10.71-.57,22.94-4.72,37.2,2.5-.4,4.91-.58,7.25-.58,23.16,0,39.06,18.31,53.38,34.78,2.83,3.26,5.77,6.63,8.65,9.74,7.34,7.92,14.2,11.55,20.39,10.81,11.4-1.37,21.68-17.38,29.36-31.17,13.89-24.94,22.83-53.65,25.17-80.83,2.69-31.07-3.37-58.84-17.52-80.32m-38.39,157.95c-1.25,0-2.39.42-3.32,1.12-.02.01-.03.02-.05.03-.1.08-.2.16-.29.24-.03.02-.05.05-.08.07-.09.08-.17.16-.25.25-.03.03-.06.06-.09.1-.08.08-.15.17-.22.26-.03.03-.05.07-.08.11-.12.16-.23.32-.33.49-.04.06-.07.12-.11.18-.04.07-.07.14-.11.21-.04.08-.08.16-.12.24-.03.07-.06.14-.08.21-.03.09-.07.18-.1.27-.02.07-.04.14-.06.21-.03.1-.05.2-.08.3-.02.07-.03.13-.04.2-.02.11-.04.23-.05.34,0,.06-.02.11-.02.17-.02.17-.03.35-.03.52,0,3.04,2.47,5.5,5.51,5.5.17,0,.34,0,.51-.03.1,0,.19-.02.29-.04.06,0,.12-.02.19-.03.13-.02.25-.05.38-.09.02,0,.04-.01.06-.02,2.34-.63,4.08-2.77,4.08-5.31,0-3.04-2.47-5.5-5.51-5.5m3.27-152.26c0-3.04-2.47-5.5-5.51-5.5s-5.51,2.47-5.51,5.5,2.47,5.5,5.51,5.5,5.51-2.47,5.51-5.5m23.04,105.35c-3.04,0-5.51,2.47-5.51,5.5s2.47,5.5,5.51,5.5,5.51-2.47,5.51-5.5-2.47-5.5-5.51-5.5m-.33-79.33c3.04,0,5.51-2.47,5.51-5.5s-2.47-5.5-5.51-5.5-5.51,2.47-5.51,5.5,2.47,5.5,5.51,5.5"/>
    </symbol>

    <symbol id="faction-jinteki" viewBox="0 0 364.75 364.74">
        <path d="m182.37,0C81.82,0,0,81.81,0,182.37s81.82,182.37,182.37,182.37,182.38-81.81,182.38-182.37S282.93,0,182.37,0Zm0,347.95c-91.44,0-165.57-74.13-165.57-165.58S90.93,16.79,182.37,16.79s165.58,74.14,165.58,165.58-74.13,165.58-165.58,165.58Zm0-325.85C93.86,22.1,22.1,93.85,22.1,182.37s71.76,160.28,160.27,160.28,160.28-71.76,160.28-160.28S270.89,22.1,182.37,22.1Zm95.46,98c.74.17,1.31-.49,1.89-1.24.27-.35.48-.72.63-1.08.11-.01.22-.03.33-.07.51-.18.71-.71.82-.99.32-.83-.06-2.06-.91-3.01-.16-.17-.3-.38-.42-.61.27-.1.54-.23.75-.36.68-.43.89-.9.84-1.39.64.42,1.34.67,1.89.33.3-.19.74-.67.3-1.8-.12-.3-.03-.58.03-.63.58-.36.76-1.13.48-2.1-.19-.69-.69-1.63-1.4-2.05.06-.08.13-.17.22-.27.67-.78.89-.66,1.26-.47.41.22,1.01.48,1.59.26.22-.09.52-.29.7-.75.18.03.61.15,1.59.61,1.8.85,3.13.88,3.63.08.28-.44.46-1.39-1.38-2.88-1.11-.9-1.22-1.32-1.03-2.33.04-.19.16-.79.27-.86.32-.2,2.12.26,3.57.63,1.73.45,2.14.13,2.27.02.17-.13.3-.39.3-.6,0-1.08-1.99-2.47-2.6-2.84.63.16,1.38.3,2.02.36.64.06,1.37.27,1.83.5,7.95,10.62,14.46,22.36,19.25,34.95,4.78,12.59,7.85,26.02,8.9,40-.07-.08-.17-.14-.29-.18-.45-.15-.79.12-1.14.54,0-.04-.01-.07-.02-.11-.14-.71-.92-1.36-2.79-2.33-1.62-.85-2.89-1.67-3.07-1.87-.4-.54-1.06-.72-1.69-.46-.72.31-1.39,1.22-1.2,2.3.02.07.05.27-.37.51-.85.46-2.45.43-3.25-.3-1.49-1.36-3.04-2.01-4.16-1.75-.59.14-1.04.53-1.26,1.1-.11.28-.2.56-.26.81-.39-.25-.84-.39-1.26-.37-.77.03-1.41.52-1.71,1.31-.03.08-.09.14-.15.17-.03,0-.08.03-.14,0-.12-.04-.16-.15-.15-.19.35-.91-.57-1.91-1.57-2.45-1.55-.83-2.27-.79-3.81.23-.23.15-.58.38-.88.55.04-.34.11-.77.16-1.07.21-1.26.15-2.2-.17-2.81.22-.06.53-.13.97-.2,1.58-.25,3.12-.63,3.12-2.22,0-1.81-1.74-1.87-3.58-1.94-.66-.03-1.19-.06-1.61-.09.12-.06.26-.14.41-.21,1.76-.91,2.43-1.66,2.18-2.42-.23-.7-1.07-.78-1.74-.73.88-.64,1.93-.84,5.26-.84,5.28,0,5.28-.82,5.28-1.31,0-.74-.68-1.32-1.55-1.32-.18,0-.76-.28-1.14-.73-.71-.87-1.79-1.17-3.2-.88-.69.13-1.23.06-1.41-.01-.52-.77-1.48-1.05-2.58-.73-1.59.45-3.3,2.05-3.3,3.85,0,.23-.39.77-1.25,1.24-.91.5-1.78.62-2.07.43-1.34-.85-2.19-.72-2.66-.46-.32.18-.85.63-.85,1.7,0,.65.17,1.11.52,1.42.25.22.55.32.84.36-.36.34-1.08.64-1.6.64-.34,0-.72.08-1.13.24.18-.19.28-.45.28-.72,0-.78-.72-1.39-1.65-1.39-.21,0-.55-.22-.65-.48-.21-.54-.77-1-1.49-1.23-.25-.08-.53-.01-.71.18-.87.9-1.72,1.91-2.56,3.01-.19.03-.39.07-.6.12-.33.08-.6.13-.81.16-.03-.2-.1-.42-.2-.67-.29-.7-1.1-2.04-2.07-2.04-.77,0-1.29.9-1.29,2.23,0,.23-.03.38-.05.48-.17-.12-.48-.44-.81-1.14-.68-1.45-1.88-1.73-4.49-1.86-2.22-.11-3.1-.05-3.57.5-.38.44-.28.98-.25,1.16.2,1.03,2.18,2.39,3.32,3.03l.85.48c-.68.07-1.73.24-2.21,1.04-.71-.46-1.87.21-2.76,1.05-1.12,1.06-1.25.99-2.05.56-2.01-1.07-7.9.06-9.55,1.52-.39.35-.54.69-.57.97-.71.12-2.26,0-3.08-.19.31-.2.77-.47,1.39-.75,2.87-1.29,2.87-1.97,2.87-2.23,0-.3-.14-.59-.4-.81-.89-.76-3.47-.73-5.49-.39-1.29.22-2.18.05-2.34-.07-.43-.43-1.31-.99-2.38.08-1.21,1.21-.07,2.43.61,3.15h0c-.4-.08-.85-.05-1.34.25-.03.01-.05.03-.08.05-.73.53-1.52.99-2.33,1.37-2.12,1-3.87,1.21-5.9,1.45-1.15.13-2.43.28-3.93.6,2.66-5.7,5.38-12.1,6.54-17.88,2.01-.35,3.97-.75,5.85-1.21.2-.05.37-.18.46-.37.43-.91.85-1.87,1.14-2.62.57.51,1.24.83,1.87.84.65,0,1.14-.27,1.43-.78.29.18.64.19.93.03.59-.33.71-1.19.71-1.85s.17-.89.24-.89c.34,0,.67-.12.93-.33-.78,1.36-.64,4.98-.32,6.1.25.87.7,1.05,1.05,1.05.8,0,1.4-.92,1.62-1.77.02-.08.04-.14.06-.2.62.48,1.14.35,1.41.23.81-.38,1.22-1.62,1.22-3.69,0-.59.59-1.79,1.88-3.01.7-.67,2.02-2.04,2.45-2.91.05.06.12.12.2.2.58.58,1.49,1.2,2.15,1.22.12.99,1.95,1.44,2.75,1.59,1.14.21,2.12.83,2.3,1.16.46.87,1.81,1.72,2.85,2.08.75.27,1.26.62,1.41.78.04.52.34.92.8,1.1.85.33,2.14-.18,3.07-1.21,1.06-1.17,1.04-2.23.6-4.17-.19-.87-.29-1.55-.32-1.95,1.01.13,3.38,1,3.93,1.47.06.46.33.65.5.73.54.25,1.07-.09,1.51-.46.24-.2.62-.42,1.27-.09,1.21.61,3.45.37,4.37-.25.55-.37.6-.83.58-1.06-.08-1.09-.09-1.18,1.14-1.65,1.03-.39,2.15-1.05,1.73-2.67-.05-.17-.06-.3-.06-.38,1.43-.21,3.73-2.73,4.09-4.01.23-.81-.24-1.18-.39-1.27-.01,0-.02-.01-.03-.02.18-.18.7-.56,2.13-1.24,2.16-1.03,2.26-1.64,2.3-1.84.02-.1,0-.23-.04-.36.08-.1.23-.27.47-.46.64-.48,1.14-.86.94-1.46-.19-.6-.83-.61-1.63-.62-.79-.01-1.22-.37-1.25-.46.01-.02.04-.06.12-.11.41-.25.63-.58.66-.96.04-.62-.44-1.1-.91-1.49-.44-.36-1.1-.76-1.7-.59-.25.07-.45.23-.58.44-.32.11-1.3.24-2.76.14-2.17-.15-2.99-.21-3.39.41-.35.54-.03,1.13.27,1.69.02.05.1.18.21.36-.72-.4-1.42-.7-1.8-.7-.27,0-.6.21-.71.45-.04.08-.08.18-.08.31-.47-.4-.9-.7-1.4-.58-.55.14-.76.68-.91,1.08-.06.15-.16.31-.3.26-.14-.05-.32-.28-.19-.68.21-.67.17-1.28-.12-1.67-.19-.26-.48-.41-.78-.41-.14,0-.6-.23-.97-.59-.51-.48-1.71-1.22-2.71-1.66-1.09-.49-1.01-.72-.93-.91.31-.82.07-1.71-.64-2.4.19-.06.36-.16.48-.28.24,1.17.51,1.98,1.23,2.15Zm-23.76,80.4s-.04-.01-.05-.01c-1.1-.2-1.72.36-1.94.94-.41,1.13.35,2.64,1.74,3.46.05.03.11.06.16.09-.89.46-1.74,1.81-2.12,2.9q-.56,1.61-2.8,1.62c-.65,0-1.24.05-1.75.13-.2.04-.39.16-.49.35-.1.18-.11.4-.03.6,1.48,3.65,1.03,6.19-1.38,7.76-.11.07-.2.18-.26.3-1.1,2.42,1.72,4.01,3.4,4.95.19.11.38.22.56.33.01.52.1,1.04.17,1.5.08.49.18,1.05.1,1.34l-.49.32h0c-.16.04-.3.14-.4.27-2.74,1.79-4.4,2.64-5.4,3.03.37-8.05-1.68-15.34-6.27-22.27-5.11-7.73-11.83-12.18-17.87-15.47,3.08-2.94,6.42-5.12,9.93-6.49,2.67-1.03,5.52-1.51,8.46-1.43l.4.08c2,.38,3.89.74,5.11,2.24.08.1.19.17.31.22.45.16.92.65,1.21,1.25.14.29.46.44.77.37.6-.12,1.15-.1,1.63.07,1.97.69,2.78,3.9,3.37,6.24.53,2.07.88,3.44,1.98,3.45h.01c.96,0,1.5-1.19,1.9-2.42h.01c.2-.18.35-.3.45-.38.09.24.2.83.24,1.55-.76,1.03-1.02,2.2-.66,3.11Zm-30.88,20.42c.21,1.49.31,3.05.3,4.66-5.29-.51-10.11-1.06-14.34-1.64,0-.95.04-1.95.12-2.97,4.16-.15,8.83-.16,13.92-.05Zm-12.29-9.15c.5-1.92,1.11-3.92,1.82-5.97,2.34,1.21,4.1,2.47,5.5,3.95.3.31.59.64.87.99-2.56.36-5.31.71-8.19,1.03Zm11.08,23.11c-1.03,2.91-2.64,5.77-4.79,8.52-.91-.9-1.76-1.85-2.53-2.81-1.39-1.75-2.51-3.61-3.38-5.67,3.78-.06,7.37-.08,10.7-.04Zm-5.19,36.16c.69.42,1.38.83,2.07,1.25,3.25,1.97,6.35,3.85,9.26,5.84-1.33-.15-2.7-.29-4.12-.44-4.95-.51-9.67-1.09-14.09-1.71,2.4-1.61,4.71-3.27,6.88-4.94Zm-21.33-231.12c-.07-.2-.29-.4-.49-.46-.03-.01-.06-.01-.09-.02,31.47,2.73,60.06,15.66,82.45,35.47-.23.12-.42.29-.57.53-.08.13-.22.21-.22.22-1.1-.27-5.74.75-6.33,1.7-.15.25-.18.54-.09.83.25.73,1.19,1.15,1.58,1.3.63.24,1.04.77,1.04.97,0,.05-.01.09-.01.12-.39.08-1.7-.09-2.21-.16-1.89-.25-2.82-.28-3.37.2-.27.24-.41.59-.41,1.02,0,.7.45,1.42,1.25,1.97.33.22.74.43,1.19.57-.45.28-.8.62-1.02,1-.1.19-.31.56-1.48.34-.76-.15-1.47-.28-1.96.16-.51.47-.44,1.23-.34,2.2.19,1.98.77,2.57,2.57,2.6.31,0,.63.05.92.12-.25.01-.55.01-.9.01-1.65,0-2.77-.24-3.04-.38-.37-.47-1.18-.7-1.91-.8.67-.29,1.14-.71,1.14-1.3,0-.92-1.18-1.24-2.29-1.24-.32,0-.51-.02-.62-.04.01-.05.03-.13.06-.22.26-.81-.05-1.7-.78-2.27-.63-.49-1.4-.61-2.04-.35-.24-.16-.7-.57-1.22-1.22-1.15-1.44-2.21-1.69-2.9-1.68-.4.02-.91.14-1.44.57-.09-.27-.31-.54-.73-.66-.97-.29-2.96.28-3.59,1.24-.07.11-.32.25-.78.33-1.11.18-2.99-.15-4.07-1-1.52-1.2-3.13-1.74-4.2-1.42-.38.12-.69.34-.89.64-.32-.1-.92-.38-1.76-.95-1.82-1.23-3.23-1.66-4.43-1.36-.29.07-.51.08-.65.08-.2-.6-.96-1-1.95-1-.12,0-.22,0-.29-.02.29-.82.06-1.64-.59-2.06-.67-.44-1.56-.3-2.2.35-.09.09-.17.16-.24.22-.01-.11-.01-.24,0-.41.04-1.25-.52-2.01-1.68-2.26.02-.22.06-.48.11-.76.38-1.91.1-3-1.19-4.12.97.14,2.25.22,2.85-.15.25-.15.54-.47.56-1.11.05-1.72-2.13-5.42-3.96-6.7-.35-.25-.84-.59-.89-.7.01-.24.69-1.08,1.35-1.88,1.18-1.46,2.19-3.73,2.28-5.17.09-1.28.1-2.08-.5-2.47-.62-.39-1.36,0-2.02.36-.01,0-.02.01-.02.01.12-.42.21-1.03-.29-1.39-.57-.41-1.32-.24-3.89,1.83.1-.46.16-.93.16-1.36,0-.82-.05-1.66-.63-2.11-.58-.45-1.39-.3-2.17-.1-1.11.27-1.34.33-2.15-1.92-.76-2.09-2.3-4.18-3.72-3.94-.34.06-1.13.35-1.14,1.82-.01.66-.33,1.75-.7,2.33-.11.17-.17.24-.17.25-.27-.05-.92-.67-1.94-1.82-2.02-2.26-3.58-3.21-4.64-2.81-.43.17-.96.62-.96,1.81,0,.32-.26.58-.57.58-.73,0-1.32.31-1.65.84-.46.14-.97.4-1.54.79-1.18.81-1.62.8-2.52.32-.18-.09-.72-.37-.76-.5-.1-.36.86-1.96,1.63-3.24.92-1.53.73-2.01.66-2.17Zm-3.03-.61s.02-.04.03-.06c.73.05,1.46.11,2.19.17-1.07,0-2.67,1.29-3.14,1.73.33-.57.68-1.25.92-1.84Zm-4.01,107.77c.61-.23,1.22-.48,1.84-.77.19.86.69,1.46,1.35,1.55.57.07,1.29-.26,1.6-1.43.09-.35.2-.56.28-.67.07.09.16.28.25.61.41,1.55,1.71,1.76,3.05,1.76,1.48,0,3.45,1.12,5.57,3.15.09.08.18.13.29.16,1.31.38,2.69.73,4.11,1.02.71,1.63,1.52,3.69,1.66,7.13.45,11.14-1.44,19.08-3.62,25.94-3.27-1.72-5.75-3.23-7.98-4.84-.02-.02-.04-.03-.06-.05-1.55-.87-3.25-2.2-5.06-3.97.1-.37.07-.83-.1-1.29-.11-.29.04-1.4.51-2.39.5-1.06.81-2.75.41-3.78-.19-.49-.17-1.27.01-1.73.14.26.35.5.65.65.41.21.9.2,1.5-.03,1.01-.39,1.23-1.04,1.28-1.4.07-.53-.11-1.37-1.39-2.32-.27-.2-.48-1.05-.35-2.08.14-.98.49-1.53.71-1.62,1.68-.65,2.55-2.82,2.4-4.46-.11-1.15-.71-1.94-1.62-2.15-.13-.13-.39-.62-.51-1.31-.25-1.41-.92-2.31-1.98-2.67-.56-.19-1.03-.62-1.1-.79-.13-.35-.37-.65-.66-.83-.35-.23-.76-.28-1.13-.14-.45.18-1.22.47.69,5.39,1.2,3.11,1.4,4.16,1.12,5.21-.2-.63-.59-1.37-1.31-1.35-.8.04-1.25.94-1.46,2.9-.02.18-.04.33-.06.46-.18-.37-.4-.86-.66-1.47-.73-1.69-1.42-3.28-3.1-2.63-1.49.57-1.28,2.15-.95,3.71.1.43.14.75.17.98-.69-.07-1.59.21-2.68.85-.27.16-.64.38-.95.54.06-.34.14-.75.2-1.02.39-1.81.17-2.49-1.17-3.63-.86-.75-2.12-1.24-2.85-.58-.06.05-.18-.01-.23-.08-.04-.04-.04-.09-.04-.12,0-.08.04-.15.09-.2.64-.57.86-1.35.61-2.07-.15-.41-.43-.77-.81-1.04.22-.15.45-.34.67-.54.44-.4.64-.93.58-1.5.55-.86.54-2.19-.06-3.35-.03-.05-.05-.11-.08-.17,1,.09,2.44-.59,3.34-1.31q1.33-1.06,3.23.13c.55.34,1.07.62,1.54.82.2.08.42.07.61-.03.18-.1.31-.28.35-.49.07-.42.16-.8.26-1.16.09.09.18.19.27.3.19.22.49.29.77.2Zm-9.16,73.99c-.15-.02-.26-.05-.34-.07.02-.2-.05-.41-.2-.57,0,0-.34-.34-.71-.65-.24-.2-.5-.37-.77-.52.41-.43.28-1.12.17-1.73-.02-.09-.05-.23-.07-.36.47.06,1.38.27,2.21.47,1.78.42,4.09,1.05,5.14,1.41,1.24.43,1.98.48,2.47.17.27-.17.45-.44.48-.76.05-.36-.04-.71-.25-1-.21-.31-.54-.5-.89-.54-.18-.05-.92-.47-1.69-1.12-.62-.52-.71-.73-.73-.73,0,0,.02-.05.11-.13.15-.15.62-.59.58-1.21,0-.24-.09-.45-.21-.64.03,0,.05,0,.08,0,1.7.19,3.01.2,3.23-1.57.24-1.92-1.42-2.12-2.3-2.23-.61-.08-1-.25-1.16-.35-.01-.29-.14-.55-.36-.73-.34-.3-.85-.38-1.4-.23h-.01c.03-.09.06-.17.07-.26.04-.32-.09-.63-.36-.82-.51-.37-1.28-.14-1.84.12-.72.33-.82.38-1.51-.42-1.08-1.25-1.88-1.68-2.51-1.35-.19.1-.38.27-.46.58-.08-.06-.15-.13-.24-.21-1.34-1.27-2.48-1.69-3.13-1.15-.35.29-.61.87.07,2.03-.87-.59-2.32-.96-2.99-.17-.12.13-.77.52-1.59.83-.44.16-.8.36-1.1.6.04-.09.06-.19.06-.29.04-.49-.24-1.1-1.71-1.28-.51-.06-.94-.32-1-.42-.09-.18-.22-.34-.39-.48,1.02-.2,1.96-.51,2.85-.94,1.4-.68,2.46-1.73,3.92-3.17l.5-.5c.62-.61,1.22-1.24,1.74-1.82.74-.71,1.5-.93,1.97-.91.23,0,.33.07.35.09.08.09.11.65-.32,1.42-.03.03-.04.07-.06.11-.15.44-.47,1.35.17,1.78.56.39,1.12-.06,1.56-.41.02-.02.04-.04.07-.05-.02.19-.04.39-.06.53-.09.76-.17,1.48.5,1.7.75.25,1.21-.6,1.65-1.43,1.27-3.15,2.15-4.05,2.64-4.27.05.21.09.52.12.75.14,1.11.37,2.98,2.21,3.23,1.61.21,3.23-.9,4.53-1.8.46-.32.89-.62,1.17-.74.17-.07.3-.2.37-.37.19-.45.35-.9.47-1.36.17-.64.26-1.26.26-1.87.09-.17.22-.31.39-.4.29-.15.66-.13.93.07,1.21.87,2.76,1.92,4.72,3.24l.08.05c.9.61,1.87,1.19,2.96,1.77-1.38,3.9-2.96,8.6-4.41,14.16-.96,3.67-1.88,7.25-2.6,10.59-4.39-.01-7.57-.16-9.01-.49-.42-.09-1.03-.29-1.81-.6-.12-.4-.43-.85-1.2-1.14.15-.14.22-.31.2-.56-.04-.65-.6-.73-1.61-.89Zm-12.29-9.51c.53.67.56.88.57.88-.04.04-.26.24-1.53.45-1.59.27-1.83.07-2.34-.59-.51-.65-1.42-1.24-2.25-1.24-.13,0-.25.01-.37.04,0-.07,0-.16.02-.29.05-.4.1-1.01.09-1.49.35-.07,1-.14,1.94-.13,1.23,0,2.57-.25,3.35-.75-.1.16-.18.34-.23.52-.22.8.03,1.68.75,2.6Zm.59,16.52c-.07.03-.13.07-.19.1-.01-.04-.01-.06-.02-.06.03,0,.09-.03.21-.04Zm14.81-189.19c1.7,0,3.38.04,5.07.1-.41,1.06-.87,1.67-1.43,1.92-.64.29-1.33.47-1.85.56.01-.11-.01-.23-.07-.36-.3-.68-1.1-.65-3.32-.42-2.73.3-4.72,1.49-5.6,3.36-.25.52-.56,1.17-.11,1.64.21.21.46.27.71.24-.19.24-.36.45-.47.59-.74.9-1.54,2.09-1.39,2.84-.06.11-.22.29-.49.47-.24.16-.35.22-.35.25-.18-.14-.58-.82-.72-1.05-.93-1.61-1.56-1.54-1.76-1.51-.34.04-.61.28-.7.6-.02.02-.09.04-.19.01-.98-.29-1.92.37-2.39,1.1-.48.77-.47,1.58.02,2.14.1.11.14.27.15.28-.39.67-.52,2.32-.57,3.11-.24.58-.36,1.04-.36,1.38,0,.16-.25.39-.64.39-1.06,0-2.14.97-2.46,2.2-.09.37-.19.63-.26.82-.15-.47-.3-1.33-.3-2.75,0-1.64-.19-4.35-1.44-4.49-.08-.1-.24-.45-.24-.99,0-1.38-.65-2.38-1.54-2.38-1.13,0-1.53,1.72-1.53,3.19,0,.94-.09,1.3-.15,1.43-.03,0-.09-.03-.17-.06-.64-.24-1.25-.21-1.68.09-.34.23-.53.6-.53,1.02,0,.58,1.17,5.75,2.37,7.66-.35-.28-.71-.58-1.08-.91-3.7-3.35-4.12-2.98-4.43-2.71-.2.1-1.29.4-2.73.68-2.01.39-2.05.21-2.3-.74-.52-1.98-1.73-2.18-3.39-1.86-.28.05-.5.08-.67.09.12-.48-.06-.78-.28-.95-.88-.72-2.73.79-3.76,1.76q-1.46,1.38-3.15.27c-1.68-1.09-2.93-1.35-3.74-.77-.76.55-.92,1.68-.47,3.37.34,1.29.83,2.19,1.67,2.89-.03,0-.06,0-.09-.02-.63-.15-1.63-.08-2.79,1.08-.41.42-.52.53-1.25-.07-.72-.6-1.83-1.15-2.56-.93-.67.12-4.1-1.71-4.81-2.91-.5-.85-1.53-1.49-2.39-1.49-.32,0-1.12-.39-1.63-1.01-.75-.91-1.63-1.78-2.48-1.36-.8.4-.85,1.61-.2,4.29,1.14,4.66,1.99,5.76,6.09,7.86,2.55,1.3,3.42,2.52,3.37,2.99-.03.29-.62.47-.8.52-.78.2-1.42.66-1.72,1.23-.2.39-.23.82-.08,1.21.08.22.04.28.01.3-.55.59-3.89.6-9.55-1.23-1.28-.41-1.98-.63-2.38-.04-.39.57.08,1.14.68,1.86.76.92,2.18,1.64,3.25,1.64.62,0,1.17.61,1.41,1.55.49,1.97,1.77,2.69,4.07,3.26-1.25.47-2.26,1.31-2.49,2.22-.18.67.09,1.3.72,1.69.46.29.55.58.52.68-.02.07-.17.17-.5.17-1.59,0-3.14,2.18-3.37,3.59-.15.89.19,1.56.88,1.8.16.07.51.67.53,1.5.01,1.06.02,1.76.67,1.97.64.21,1.07-.35,1.71-1.2.16-.2.31-.36.44-.48-.03.07-.08.13-.14.2-.25.32-.36.7-.28,1.09.18.86,1.24,1.73,3.66,3,.81.42,1.56.84,2.19,1.21-.6-.16-1.22-.35-1.86-.57-1-.34-1.66-.56-2.05-.01-.38.54.04,1.08.53,1.69.64.82,1.8,1.43,2.7,1.43.42,0,.81.47.98,1.2.38,1.61,1.37,2.27,3.03,2.74-.88.42-1.57,1.07-1.76,1.77-.17.62.06,1.2.61,1.57.31.2.38.4.37.44-.01.02-.09.06-.27.06-1.37,0-2.6,1.85-2.81,3.07-.21,1.21.55,1.58.76,1.64.09.07.34.53.35,1.17.01.17.01.32.01.45-.46.14-.9.38-1.13.75-.18.3-.22.61-.13.91-.03.02-.06.04-.08.05-.18.13-.32.3-.39.5-.18-.01-.53-.05-1.14-.23-2.25-.65-5.37-.24-5.79,1.16-.13.45-.1,1.29,1.62,1.82.55.17,1.5.57,2.07.88.3.16.66.28,1.04.35-.34.61-.46,1.24-.11,1.67.12.15.59.6,1.43.07.11-.04.55,0,1.13.32.6.32.9.69.92.77-.02.07-.13.38-.52.96-.13.19-.16.42-.08.63.08.21.26.37.48.43l1.13.29c.3.08.62-.06.78-.33.48-.87.87-1.32,1.03-1.43.62-.07,1.07-.75,1.07-1.66h0c.06,0,.15.03.28.07.85.26,1.94.16,2.38-.56.08-.1.53-.33,1.06-.33.03,0,.06,0,.09,0-.04.23,0,.46.11.67.04.08.09.15.15.21-.38.31-.77.79-.5,1.34.14.28.55,1.14,3.93-.06.46-.16,1.23-.43,1.66-.53,0,.37,0,1.05.58,1.29.58.25,1.08-.25,1.35-.52.28-.28.89-.54,1.27-.54.11,0,.25.02.29.22.03.15-.02.43-.36.56-1.19.46-1.37,1.06-1.31,1.48.04.3.22.64.74.89-.33.32-.66.69-1.02,1.1-1.44,1.62-1.8,2.45-1.35,3.09.54.75,1.73.26,2.3.02.51-.21,1.1-.19,1.26-.1.61.32,1.58.25,2.24-.16.41-.25,1.66-.45,2.86-.39.61.4,1.31.63,1.96.63.31,0,.6-.06.87-.15l.28-.02s.07-.01.11-.01c.39-.09.49-.05.49-.05,0,0,.06.06.13.3.29.91.73,1.37,1.15,1.61-.26.1-.5.23-.75.41-4.87.07-4.87.89-4.87,1.38,0,.77.72,1.4,1.61,1.4.21,0,.84.32,1.26.85.25.32.62.65,1.14.87-.21-.03-.41.06-.56.22-.27.3-.49.6-.66.91-.16.31-.07.69.21.89l1.89,1.37c-.9.29-1.42.18-2.63-.43-1.17-.58-2.11-.88-3.12-.6.57-.6.56-1.14.48-1.46-.26-.93-1.46-1.41-3.39-1.4-3.74.07-6.13-.37-7.73-1.42-1.77-1.16-3.84-1.79-5.01-1.53-.57.12-.85.42-1,.68,0,0-.18.03-.77-.29-.87-.47-1.77-.48-2.54-.02-1.09.66-1.72,2.14-1.72,4.07,0,.33-.01.57-.03.75-.59-.3-1.4-.54-2.03-.65-2.55-.45-5.43-1.92-5.97-2.54.26-.87-.03-1.46-.42-1.74-.41-.29-1.14-.37-1.94.29-.11.09-.43.36-1.66-.2-.17-.08-.51-.24-.73-.36.12-.15.28-.34.36-.42.59-.65,1.66-.92,3.69-.92.79-.01,4.78-.09,5.38-1.55.16-.4.06-.83-.27-1.17-.61-.61-2.1-.13-2.71.1-.62.23-.96.26-1.09.27.06-.32.29-.99.75-1.81.11-.19.12-.42.03-.61-.08-.2-.26-.35-.47-.4l-1.12-.29c-.28-.08-.58.04-.75.28-.26.39-.56.78-.87,1.12-1.14,1.3-1.65,1.28-2.04,1.16-.46-.15-1.13-.3-1.64.07-.33.24-.5.64-.5,1.17,0,.15-.12.28-.27.28-.46,0-.84.15-1.08.42-.36-.23-.86-.57-1.5-1.03-1.63-1.18-2.83-2.6-2.97-3.1-.28-.96-1.04-1.98-1.77-2.37-1.91-1-6.77-1.43-9.14-.86.08-.18.12-.35.12-.51,0-.29-.16-.55-.43-.7-.52-.29-2.53-.32-4.43-.18.54-.54,1.14-1.57,1.39-2.42.19-.62.32-1.28-.04-1.78-.14-.19-.32-.32-.52-.4.26-.47.35-1.03.26-1.5-.02-.12-.06-.24-.1-.34.97-.23,1.93-.52,2.42-.78,1.37-.72,1.6-1.58,1.36-2.15-.09-.22-.43-.8-1.51-.69.27-.46.45-1.05.06-1.52-.35-.4-1.09-.77-3.53.68-.31.18-1.19.69-1.55.8l-.03-.06c-.36-.94-1.04-1.45-1.74-1.33-.51.1-1.06.58-1.07,1.63-.02,0-.04,0-.07-.02-.81-.32-2.02-.01-2.81.71-.13.11-.24.21-.33.29,0-.02,0-.04-.02-.07-.16-.41-.15-.86-.1-.96.21-.35.23-.73.05-1.06-.04-.08-.1-.16-.17-.23.25-.22.45-.52.33-.91-.19-.65-.92-.65-1.63-.66h-.02c-1.18,0-2.14.69-2.57,1.84-.26.69-.38,1.26-.13,1.78.04.06.07.13.12.18-.63.15-1.26.41-1.53.85-.09.11-.55.31-1.06.31-1.49,0-1.83.58-1.86,1.06,0,.1.01.2.03.3-.26-.27-.6-.51-1.02-.73-.77-.41-1.37-.88-1.47-1.01-.58-.87-2.06-.68-2.99-.2.81-1.07.62-1.68.31-2.01-.58-.62-1.76-.34-3.25.76-.09.07-.17.13-.25.18-.05-.32-.22-.51-.39-.63-.59-.41-1.44-.07-2.66,1.03-.78.71-.87.66-1.55.24-.52-.33-1.26-.66-1.81-.35-.29.16-.45.45-.45.78,0,.08.01.17.03.26t0-.01c-.23-.1-.47-.14-.69-.14,23.94-45.96,72.04-77.42,127.34-77.42Zm-30.55,173.19c.07-.12.3-.33.63-.48.3-.13.5-.13.52-.12.1.08.29.57.21,1.21-.01.14-.03.26-.06.35-.32-.15-.78-.3-1.31-.44.06-.17.06-.36.01-.52Zm-1.69-72.83c.4.09.86.11,1.41.03.12.21.3.44.51.71-.6-.24-1.23-.49-1.92-.74Zm-12.19-72.36c0,1-.27,1.38-.39,1.4-.19.01-.94-.4-1.5-2.02-.35-.99-.76-1.66-1.17-2.1.57.28,1.26.54,2.08.79.58.19.98.96.98,1.93Zm-66.03,52.53c-.03-.19-.08-.37-.16-.54.7.59,1.98,1,3.23,1.15.93.1,1.57.26,1.91.37-.07.47-.09,1.09-.09,1.48,0,.13-.01.23-.02.3-.88-.34-2.07.2-2.74.87-.59.59-.86.76-2.4.3-1.22-.36-1.43-.58-1.45-.58,0-.03.04-.24.66-.86.83-.83,1.18-1.67,1.06-2.49Zm79.67,173.5c-10.01,7.11-19.7,13.99-26.71,20.89-50.57-22.21-85.98-72.76-85.98-131.44,0-19.57,3.95-38.24,11.07-55.26.45.31,1.18.33,2.38.08,1.1-.23,3.47-.58,5.28-.78.88-.1,1.82-.19,2.25-.19-.04.12-.08.26-.11.35-.2.63-.42,1.34.03,1.82.1.1.21.18.34.22-.26.04-.53.04-.77,0-.72-.08-1.21.07-1.47.47-.07.11-.2.38-.11.74-.08.01-.17.02-.29.03-1.02.03-1.58.05-1.7.68-.05.24,0,.43.12.58-1.24.3-1.46,1.11-1.46,1.63,0,.21,0,.84.5,1.2.04.03.08.06.12.08-.64-.15-.78-.45-1.06-1.06-.62-1.36-1.3-2.05-2.95-1.54-3.26,1-3.45,2.62-3.27,3.5.04.23-.21,1.01-.75,1.6-.7.77-1.25,1.96-.94,2.76.06.18-.03.85-.37,1.4-.35.55-1.16,1.86-.33,2.47.96.72,2.8-1,4.18-2.56,2.86-3.25,5.93-4.55,6.57-4.15.67.42,3.22.7,4.47.79,1.86.14,3.09.48,3.37.65.28.37.79.55,1.37.6-.36.23-.65.55-.79.96-.12.37-.06.76.16,1.07.28.39.8.61,1.42.61.34,0,.98.2,1.51.49-.39.05-.77.19-.97.55-.3.57.07,1.17.37,1.65.9,1.44,1.63,1.41,3.22.58.84-.43,1.06-.41,1.12-.35.21.33.52.54.92.62.59.12,1.7.05,4.47-1.94.37-.26.48-.28.48-.29.03,0,.16.09.49.54.69.94,1.77,1.37,2.63,1.04.16-.06.35-.05.42.12.3.78.88,1.26,1.58,1.3.93.07,1.87-.62,2.52-1.83.33-.63.82-.84,1.04-.79.14.04.16.27.16.4,0,2.22,2.35,2.79,6.98,3.12,4.83.34,6.39.73,6.89.95-.11.36-.05.72.17,1.02.67.9,2.68.84,4.36.37,1.49-.41,2.1-.27,2.6.1.11.08.19.15.25.21-.45.4-.77,1.12-.77,1.78,0,.62-2,2.58-2.85,2.61-.83.02-1.96,1.18-2.5,1.86-.14.18-.41.53-.62.75-.03-.05-.07-.12-.12-.2-.31-.53-.74-1.13-1.36-.98-.04.01-.07.02-.1.03-.24-.33-.65-.81-1.22-.76-.59.07-.82.65-.89.82-.04.05-.39.19-1.19.02-.75-.15-1.46-.3-1.72.34-.29.69.25,1.04,2.02,2.21.01,0,.02,0,.03.02-.47.15-.84.44-1.01.83-.19.44-.14,1.13.65,1.62.14.08.04.46.02.54-.34,1.19-1.95,2.85-3.06,2.85s-2.09.59-2.4,1.38c-.1.26-.44.48-.65.48-.93,0-1.65.61-1.65,1.38,0,.28.1.53.28.73-.41-.16-.79-.25-1.13-.25-.52,0-1.24-.29-1.6-.63.29-.04.59-.14.84-.36.35-.31.52-.78.52-1.42,0-1.08-.53-1.53-.85-1.7-.47-.26-1.32-.39-2.67.46-.28.19-1.15.07-2.06-.43-.86-.48-1.25-1.01-1.25-1.24,0-1.8-1.71-3.41-3.3-3.86-1.1-.31-2.06-.04-2.58.73-.18.08-.72.15-1.41.01-1.41-.28-2.49.02-3.2.88-.38.46-.96.74-1.14.74-.87,0-1.55.57-1.55,1.31,0,.49,0,1.32,5.28,1.32,3.33,0,4.38.19,5.26.84-.67-.04-1.51.03-1.74.73-.25.76.42,1.5,2.18,2.41.16.08.29.15.41.22-.42.03-.95.06-1.61.09-1.84.07-3.58.13-3.58,1.93,0,1.6,1.54,1.97,3.12,2.23.44.07.75.14.97.2-.32.61-.38,1.55-.17,2.8.04.29.11.73.16,1.08-.3-.17-.65-.4-.88-.55-1.55-1.02-2.26-1.06-3.81-.23-1,.54-1.92,1.53-1.57,2.45.01.04-.03.14-.15.19-.06.02-.11,0-.14-.01-.04-.02-.11-.06-.15-.16-.3-.8-.94-1.29-1.71-1.31-.44-.03-.87.12-1.26.37-.06-.26-.15-.53-.26-.81-.22-.57-.67-.96-1.26-1.11-1.11-.26-2.67.4-4.16,1.76-.8.73-2.4.76-3.24.3-.43-.24-.4-.44-.38-.51.19-1.09-.48-2-1.2-2.3-.63-.26-1.29-.09-1.67.44-.2.22-1.47,1.04-3.09,1.88-1.87.98-2.65,1.63-2.79,2.34-.01.03-.02.07-.02.1-.35-.42-.68-.68-1.14-.53-.6.2-.61.83-.62,1.62-.01.52-.22.89-.26.94-.47.15-.92.64-.78,1.52.18,1.13,1.38,2.8,2.66,2.8.1,0,.18,0,.18.01-.03.06-.1.16-.28.27-.54.34-.77.88-.62,1.46.16.59.73,1.15,1.47,1.54-1.43.41-2.29,1.02-2.63,2.4-.16.61-.49,1-.87,1-.84,0-1.93.54-2.53,1.27-.45.54-.88,1.05-.51,1.59.37.55,1,.35,1.95.04,4.46-1.43,6.58-1.25,6.82-.93-.13.34-.1.71.07,1.04.24.48.74.84,1.38,1.01.34.09.44.2.45.22.05.15-.41,1.02-2.38,2.02-3.05,1.56-3.74,2.44-4.59,5.91-.51,2.1-.44,3.01.25,3.36.83.41,1.65-.57,2.05-1.05.34-.41.89-.68,1.06-.68.69,0,1.52-.51,1.92-1.18.47-.81,2.77-2.06,3.32-2.06h.02c.69.2,1.62-.36,2.06-.72.31-.26.41-.27.41-.27,0,0,.08.02.26.2.66.66,1.26.87,1.74.89-.42.48-.69,1.07-.9,1.84-.35,1.33-.21,2.23.42,2.68.67.49,1.64.3,2.96-.56q1.13-.74,2.11.18c1.42,1.34,2.44,1.78,3.01,1.3.14-.11.3-.31.3-.63.07.01.16.02.25.04,1.14.22,2.27.19,2.71-1.5.16-.63.18-.67,1.49-.42,1.03.2,1.74.4,1.93.48.35.28.8.43,3.5-2.01.05-.05.1-.09.14-.13-.8,1.76-1.39,4.62-1.39,4.95,0,.38.17.71.47.91.35.24.84.28,1.34.11.03.14.05.39.05.81,0,1.23.35,2.54,1.32,2.54.76,0,1.31-.82,1.31-1.94,0-.27.06-.47.11-.56.93-.21,1.13-1.97,1.13-3.47,0-.54.03-.97.08-1.31.28.97,1.11,1.69,1.96,1.69.18,0,.28.08.3.1,0,.66.56,1.82,1.12,2.62l1,1.42c.12.17.31.28.52.29.21.02.41-.06.56-.21l1.21-1.31c.91-.97,1.29-2.17,1-3.13,0,0,.03.01.04.01,1.08.28,1.74-.22,2.01-.79.5-1.08-.14-2.66-1.46-3.58-.04-.03-.1-.07-.15-.11.92-.39,1.88-1.66,2.35-2.71q.69-1.56,2.92-1.39c1.36.1,3.08.05,3.77-.79.11.09.28.25.55.57.76.87,2.19,1.56,3.27,1.56.68,0,1.98.54,2.69.96-.13.3-.18.83.8,1.91.71.78.7.79.29,1.28-.23.28-.66.8-.5,1.41.18.67.89.98,1.95,1.38.85.32,1.33.66,1.41.99.05.22-.02.77-1.12,1.93-.83.89-1.29,1.38-1.23,2.02.05.59.52.93,1.12,1.37.05.04.11.08.15.11-1,.47-1.4,1.43-1.26,2.18.14.74.76,1.22,1.58,1.22.12,0,.23.11.23.24,0,1.04.52,1.39.83,1.5.86.34,2.05-.36,3.62-2.12.7-.78,1.05-1.1,1.23-1.22.01,0,.02.03.04.05.25.39.48,1.17.48,1.62.01,1.22.7,1.46,1,1.51,1.14.19,2.34-1.36,2.94-3.01.54-1.5.62-1.48,1.37-1.3.62.16,1.27.28,1.76-.11.49-.38.54-1.05.54-1.7,0-.18-.02-.36-.04-.55,1.56,1.22,2.19,1.43,2.71,1.05.31-.22.38-.54.35-.84.44.22.93.37,1.36.09.56-.36.51-1.11.45-1.98-.07-1.09-.83-2.81-1.72-3.91-.38-.46-.81-.98-.93-1.22.12-.11.37-.29.55-.41,1.42-.99,3.04-3.75,3-5.09,0-.58-.32-.85-.5-.96-.39-.25-1.09-.26-1.69-.2.67-.76.8-1.58.55-2.83-.08-.4-.09-.72-.09-.92.83.12,1.43.63,1.43,1.27,0,.46.06,1.11.57,1.46.36.24.82.26,1.37.05,2.53-.98,3.61-.95,5.77.16,1.38.69,2.44,1.72,2.56,2.12.2.62.55,1.48,1.32,1.66.42.11.81-.03,1.12-.22.01.14.02.32.02.53,0,.81-.17,1.9-.97,2.5-.81.62-1.3.99-1.11,1.6.2.59.83.6,1.39.61.8.02,2.6-.65,3.85-1.29l1.3-.66-.13,1.62c-.18,2.25.1,3.53.97,4.41.47.46,1.03.91,1.63.77.13-.03.32-.1.49-.28.21.73.57,1.49.94,1.95-1.87-.37-3.87-.58-4.42-.36-.29.12-.48.36-.52.64-.02.16.01.34.06.52-1.77-.67-4.93-.87-7.12-.67-.14.02-.27.07-.37.16-.43.34-.84.74-1.25,1.22-.09.11-.15.21-.16.35-.03.1-.19.39-.3.58-.29.51-.61,1.09-.66,1.64-.02.24.09.47.29.62.2.14.46.17.68.07.6-.27,1.16-.44,1.65-.54.37-.06.89-.06,1.48.01.97.11,1.84.37,2.41.6-.12.01-.23.01-.35,0-1.1-.13-1.96.32-2.05,1.08-.03.27.02.78.77,1.18.36.2.84.34,1.34.4.2.02.35.06.46.09-.02.16-.01.31.05.46.08.2.31.79,2.1,1.07-.12.21-.16.44-.15.65.04.54.52,1.22,1.74,1.37.34.04.4.21.43.27.13.33,0,1-.59,1.71-.23.28-.28.35-1.67-.44-1.63-.92-2.96-.51-3.67-.29-.12.03-.29.08-.34.09l-.96.07c-.19,0-.38.08-.51.23-.05.04-.08.1-.11.15-.6,1.19-.34,2.06-.02,2.57.49.79,1.41,1.24,2.36,1.46-.08.04-.17.08-.27.13-.41.18-.84.37-1.16.73-.16.18-.21.43-.15.65.06.23.24.41.46.48.73.22,1.4.54,1.99.81l.45.21c.2.09.43.08.62-.03.2-.11.33-.3.35-.52.03-.2-.01-.39-.07-.55.67.18,1.34.55,1.67,1.29.11.23.34.39.6.41,3.13.15,3.88.11,4.12-1.89.02-.13.06-.35.21-.37.23-.03.68.24.94.9.49,1.28,1.34,2.07,2.26,2.13.71.03,1.35-.36,1.74-1.1.03-.06.08-.1.14-.11.09-.03.19-.01.29.04.81.44,1.94.14,2.74-.71.38-.41.52-.47.52-.47.02,0,.14.04.46.34,2.52,2.31,3.61,2.51,4.21,2.47.4-.03.74-.2,1.02-.55.04-.01.26,0,1.04.53,1.48,1.02,2.19,1.14,3.26-.18.36-.44.81-1,.57-1.59-.16-.39-.51-.57-.9-.67.57-.22,1.23-.35,1.56-.3.62.07,1.16-.08,1.49-.44.26-.28.36-.66.29-1.04-.09-.42-.34-.77-.67-1.05.59.03,1.11-.09,1.44-.43.29-.13,1.55-.32,3.41-.23.75.04,1.51.05,2.23.03,3.82.79,5.23,1.25,5.74,1.5,3.18,1.57,5.83,3.63,7.88,6.13-.34,7.39,1.36,13.32,5.34,18.65.35.47.72.95,1.09,1.42.6.77,1.25,1.53,1.98,2.31-5.23,3.53-12.57,8.98-21.01,15.24-7.08,5.25-15.1,11.2-22.92,16.78-1.33.95-2.67,1.9-4,2.84Zm72.79,24.72l-1.67,1.72c-7.4.19-16.22-.24-26.24-1.28-9.44-.98-17.83-2.15-24.94-3.48.08-2.25.39-4.45.91-6.54,7.57-.39,21.43-.84,32.8.14,8.89.77,18.25,2.24,24.91,3.42-1.85,1.98-3.84,4.03-5.77,6.02Zm14.8-17.3c-4.53-.71-14.4-2.11-32.09-3.94-9.59-1-18.07-2.19-25.23-3.53,1.35-1.18,2.83-2.31,4.42-3.35,6.59-.39,22.85-1.15,35.87-.02,5.59.48,11.97,1.29,18.97,2.41.7,2.26.06,5.03-1.94,8.43Zm28.73-2.83c-.64-4.25-1.72-8.01-3.02-10.36-10.9-19.75-21.28-25.93-31.32-31.9l-.26-.15c4.35-5.52,7.21-10.89,8.51-15.97.37-.21.76-.43,1.17-.63,1.61-.79,6.26-1.64,9.98-2.16.26.51.95.85,1.76.77.32-.01,1.33.44,2.15,1.17,1.03.92,2.53,1.57,3.51,1.48.52-.05,1.25.19,1.64.51-.28.06-.57.18-.8.43-.32.33-.46.81-.4,1.45.08,1.07.64,1.48.97,1.63.49.22,1.35.28,2.62-.68.27-.2,1.15-.16,2.1.27.9.4,1.33.91,1.34,1.14.15,1.79,1.98,3.25,3.6,3.58,1.13.22,2.06-.13,2.52-.94.16-.09.7-.2,1.4-.12,1.43.17,2.48-.22,3.12-1.13.34-.49.89-.81,1.08-.82.86-.07,1.5-.7,1.44-1.44-.04-.49-.11-1.31-5.37-.89-3.32.27-4.38.16-5.31-.42.67,0,1.5-.15,1.67-.87.19-.77-.54-1.46-2.37-2.23-.15-.06-.29-.12-.42-.18.41-.07.95-.14,1.6-.22,1.83-.21,3.55-.42,3.41-2.21-.13-1.59-1.69-1.84-3.29-1.97-.44-.03-.75-.08-.98-.12.27-.64.25-1.58-.05-2.81-.07-.3-.18-.72-.24-1.06.3.15.67.35.91.48,1.63.89,2.34.87,3.82-.08.96-.62,1.8-1.68,1.37-2.63.02-.06.07-.11.13-.14.1-.05.24.02.3.15.37.77,1.06,1.23,1.82,1.17.43-.02.85-.19,1.22-.47.08.25.2.52.32.79.27.55.74.9,1.35.99,1.12.18,2.63-.6,4.01-2.08.74-.79,2.33-.95,3.21-.55.44.2.42.4.41.47-.1,1.1.64,1.95,1.38,2.2.65.22,1.29-.02,1.63-.57.15-.2,1.27-1.08,2.93-2.13,1.79-1.12,2.51-1.83,2.6-2.55,0-.03.01-.07.01-.1.38.39.73.62,1.18.44.58-.25.54-.87.49-1.67-.04-.52.14-.91.18-.95.45-.2.87-.71.66-1.58-.28-1.11-1.59-2.69-2.89-2.58h-.18c.03-.06.1-.17.27-.29.51-.38.69-.93.49-1.5-.2-.58-.81-1.09-1.58-1.42,1.39-.53,2.2-1.2,2.43-2.6.11-.62.41-1.04.78-1.07.84-.06,1.89-.7,2.43-1.47.4-.57.78-1.12.38-1.62-.41-.52-1.03-.27-1.95.11-4.33,1.78-6.46,1.78-6.72,1.47.1-.34.04-.71-.16-1.03-.03-.06-.08-.13-.13-.18.26.03.48.06.67.11.23.06.47,0,.65-.17l3.6-3.37c.21-.2.27-.5.17-.77-.11-.26-.36-.43-.65-.43h-.14c-.57,0-1.12-.06-1.63-.13l.13-.12s.05-.05.07-.07l.09-.13c.63.32,1.11.44,1.47.44.52,0,.8-.24.94-.45.22-.33.38-1.02-.63-2.08.45.05.82,0,1.11-.27.47-.43.37-1.12.29-1.63-.07-.53-.11-.79,1.16-1.22,1.27-.42,1.37-.46,2.55.91.79.91,1.42,1.49,2.13,1.51.4.03.76-.14,1.08-.46.06-.05.11-.11.15-.17.61.08,1.47-.42,2.6-1.48q.98-.92,2.11-.18c1.32.87,2.29,1.05,2.96.56.63-.45.77-1.35.42-2.67-.21-.77-.48-1.36-.9-1.84.48-.02,1.08-.23,1.74-.89.17-.17.25-.2.25-.2.01,0,.12,0,.42.26.44.36,1.36.92,2.03.73.54,0,2.91,1.26,3.37,2.05.4.68,1.23,1.18,1.92,1.18.17,0,.72.27,1.06.68.19.23.47.57.8.82-4.94,39.74-26.2,74.49-56.85,97.32Zm57.46-103.17c-.67-1.41-1.66-2.14-3.7-3.18-1.96-1.01-2.43-1.87-2.38-2.03.01-.02.11-.13.45-.22.64-.17,1.14-.53,1.38-1,.12-.24.17-.49.13-.75.34.06.79.17,1.18.27.98.24,2.15.53,3.32.62-.09,2.11-.21,4.21-.38,6.29Zm-1.95-12.85c.74-.38,1.31-.94,1.47-1.54.15-.58-.08-1.12-.62-1.45-.2-.13-.28-.25-.32-.25.03-.02.1-.04.22-.04.58,0,1.14-.35,1.6-.82.06,1.65.1,3.31.1,4.98,0,.32-.01.64-.01.97-.41-1-1.22-1.49-2.44-1.85Z"/>
    </symbol>

    <symbol id="faction-neutral-corp" viewBox="0 0 156.81 142.83">
        <polygon points="133.76 0 92.06 41.71 108.06 57.71 133.76 32.01 133.76 110.79 23.05 0 0 0 0 142.83 23.05 142.83 64.75 101.12 48.75 85.12 23.05 110.82 23.05 32.04 133.76 142.83 156.81 142.83 156.81 0 133.76 0"/>
    </symbol>

    <symbol id="faction-neutral-runner" viewBox="0 0 156.81 142.83">
        <polygon points="133.76 0 92.06 41.71 108.06 57.71 133.76 32.01 133.76 110.79 23.05 0 0 0 0 142.83 23.05 142.83 64.75 101.12 48.75 85.12 23.05 110.82 23.05 32.04 133.76 142.83 156.81 142.83 156.81 0 133.76 0"/>
    </symbol>

    <symbol id="faction-sunny-lebeau" viewBox="0 0 229.71 300">
        <path d="m41.39,19.58c15.29-6.55,33.28-9.87,53.47-9.87,10.81,0,22.5.95,34.74,2.84,14.27,2.19,24.98,3.17,34.72,3.17,13.58,0,25.76-2.01,38.32-6.48C178.7,4.15,149.78.17,116.95,0,68.55-.24,28.42,7.9,0,15.93v37.38c10.41-15.09,24.31-26.42,41.39-33.73m186.83,56.6c-4.84,8.81-10.57,16.24-17.17,22.29-2.82,10.9-7.21,21.18-12.96,30.13-5.6,8.71-12.34,15.97-20.05,21.56-.55.4-1.1.77-1.65,1.15-1.03,7.14-2.57,14.76-4.99,22.15-5.83,17.82-15.51,30.27-28.77,37.03-4.55,2.32-9.7,3.44-15.77,3.44-5.19,0-10.45-.83-15.54-1.62-4.75-.74-9.67-1.52-14.03-1.52-7.36,0-11.58,2.14-15.56,7.89-4.03,5.83-5.11,12.01-3.39,19.47,2.05,8.87,7.91,18.79,16.96,28.69,8.13,8.9,16.94,15.69,25.89,21.97l11.18,7.08c45.65-23.63,92.42-58.88,97.06-104.14.12-1.17.21-2.35.28-3.54v-114.87c-.49.95-.98,1.9-1.5,2.83m-30.78-1.98c-14.67,9.87-31.15,12.83-48.24,12.83-25.48,0-52.31-6.57-76.55-6.57-26.28,0-49.5,7.71-64.66,39.87-3.31,7.03-5.29,14.16-6.31,21.17,2.6-2.96,5.46-5.75,8.57-8.35,14.25-11.9,32.95-19.17,52.67-20.47,2.39-.16,4.84-.24,7.28-.24,13.35,0,25.25,2.29,36.75,4.5,10.15,1.95,19.73,3.8,29.33,3.8,6.85,0,13.26-.96,19.59-2.93l24.16-7.53-1.21,15.69c11.61-14.09,17.82-33.59,18.63-51.77m-100.15,119.44c10.7,0,21.33,3.14,29.57,3.14,3.02,0,5.71-.42,7.98-1.57,20.68-10.54,24.61-41.34,26.13-61.01-8.67,2.7-16.83,3.71-24.69,3.71-22.62,0-42.82-8.3-66.08-8.3-2.03,0-4.08.06-6.15.2-31.76,2.1-61.31,23.18-63.12,56.34-.23,4.26-.08,8.43.42,12.51,12.17,48.62,61.16,79.93,103.64,101.35-29.98-16.85-61.42-56.32-37.36-91.08,8.45-12.21,19.09-15.28,29.67-15.28m117.76-129.32l1.04-23.35-28.23,19c-10.04,6.76-22.33,9.91-38.66,9.91-11.81,0-24.64-1.63-37.06-3.21-13-1.65-26.44-3.36-39.5-3.36-17.7,0-32.31,3.25-44.67,9.95-7.4,4.01-14.11,9.33-19.94,15.81-2.5,2.78-4.87,5.81-7.11,9.08,1.6-10.99,4.76-21.64,10.82-31.46C30.56,36.21,62.28,26.87,94.86,26.87c10.76,0,21.62,1.02,32.13,2.64,13.51,2.08,25.68,3.37,37.33,3.37,21.8,0,41.8-4.53,65.39-16.94h0c-3.33,16.13-7.34,33.56-14.66,48.39"/>
    </symbol>

    <symbol id="faction-apex" viewBox="0 0 300 271.09">
        <path d="m0,139.06l19.07,16.91c1.44-3.88,2.43-8.83,3.03-14.94l-1.9-1.96,2.15-2.22c.26-5.83.28-11.78-.13-17.48L0,139.06h0Zm42.86-3.85c3.06-10.48,3.27-21.61-2.44-28.76-7.69-7.29-11.7-5.39-12.34,4.95,1.55,43.22-4.02,60.95-15.8,56.4,10.25,8.67,19.51,2.26,25.9-47.12,2.5.63,4.07,5.45,4.68,14.52h0Zm10.25-12.27l-4.36,16.12,2.6,9.61c2.3-8.38,2.68-16.97,1.76-25.72m-15.61,34c-1.41,4.43-3.08,8.07-5,10.92l7.92,7.02,7.69-15.57-1.57-5.68-6.12,6.33-2.92-3.02h0ZM0,85.52c7.85-20.18,19.47-23.23,38.88-3.71,11.89,13.31,19.57,27.61,20.58,43.45.73,22.42-5.28,42.77-17.78,61.12-7.23,12.65-6.06,24.2,3.3,34.66,19.95,18.23,32.41,8.07,41.49-14.92-11.57,12.54-23.45,18.98-36.34,5.06-3.26-4.09-3.74-10.46.36-20.61,5.06-8.21,9.4-16.91,12.74-26.31,6.73-16.35,8.43-33.04,3.65-50.17-8.81-30.87-23.83-44.75-41.2-52.2C8.83,55.65,2.4,67.15,0,85.52h0Zm62.59,2.38c2.79,5.28,5.32,11.14,7.65,17.47l5.88-25.34,13.68,59.03-13.68,59.03-7.33-31.62c-2.32,6.29-4.93,12.17-7.84,17.66l7.66,28.31c4.91-2.3,9.47-5.73,13.59-10.54l3.71,2.12,14.86-54.91-3.61-10.05,3.6-10.12-24.63-91.03-13.52,49.98h0Zm68.8,29.47l5.3-16.31,12.85-8.63,13.43,8.92,5.17,16.85-18.61-14.23-18.16,13.4h0Zm0,43.51l5.3,16.31,12.85,8.63,13.43-8.92,5.17-16.85-18.61,14.23-18.16-13.4h0Zm-54.18-49.73l6.54,27.91-6.53,27.71c-1.26-5.85-2.26-12.49-2.84-20.43,1.34-7.63,1.66-15.44.79-23.43l2.03-11.76h0Zm-13.96-69.59c.25-13.71-.04-27.55,39.04-32.05-1.2,14.64-6.56,26.5-14.31,36.77,7.19,4.05,20.29-1.16,40.45-17.42-7.4,3.69-15.24,6.05-23.59,6.86l6.04-21.49C112.4,2.03,108.05.03,102.47.15c-38.74,4.79-43.47,21.52-39.22,41.41h0Zm29.06,33.17l4.37,15.29c7.95-13.87,17.3-23.93,28.27-29.59l5.86-17.22c-14.95,5.3-27.81,15.73-38.49,31.52h0Zm4.2,113.06l-4.2,15.61c12.75,18.51,25.65,27.91,38.49,31.52l-5.88-17.23c-11.51-6.22-20.93-16.3-28.42-29.9h0Zm-.79,35.27c-5.24,2.79-10.21,5.9-14.63,9.64-3.81,3.09-3.42,6.88-.52,11.11,5.67,7.41,10.12,15.63,13.32,24.68.85-7.67-1-17.34-5.05-28.64,1.05-6.13,3.51-11.65,6.89-16.79Zm18.29,37.85c-1.09-5.41-4.13-10.8-8.54-16.19,4.56-5.06,10.25-6.36,17.17-3.52-4.4-5.64-10.97-8.17-21.46-5.06-5.22,2.61-6.09,6.25-2.31,10.99,4.7,5.58,9.67,10.39,15.14,13.78h0Zm18.76-5.64c.43-2.96.46-6.12.08-9.5-.85-6.36-11.36-2.54-7.52,3.13,2.07,3.06,4.93,4.79,7.44,6.37ZM150,7.03l-46.52,132.03,46.52,132.03,46.52-132.03S150,7.03,150,7.03Zm0,32.98l-31.82,99.06,31.82,99.06,30.91-99.06-30.91-99.06h0Zm150,98.92l-19.07,16.91c-1.44-3.88-2.43-8.83-3.03-14.94l1.9-1.96-2.15-2.22c-.26-5.83-.28-11.78.13-17.48l22.23,19.7h0Zm-42.86-3.85c-3.06-10.48-3.27-21.61,2.44-28.76,7.69-7.29,11.7-5.39,12.34,4.95-1.55,43.22,4.02,60.95,15.8,56.4-10.25,8.67-19.51,2.26-25.9-47.12-2.5.63-4.07,5.45-4.68,14.52h0Zm-10.25-12.26l4.36,16.12-2.6,9.61c-2.3-8.38-2.68-16.97-1.76-25.72m15.61,34c1.41,4.43,3.08,8.07,5,10.92l-7.92,7.02-7.69-15.57,1.57-5.68,6.12,6.33,2.92-3.02h0Zm37.5-71.43c-7.85-20.18-19.47-23.23-38.88-3.71-11.89,13.31-19.57,27.61-20.58,43.45-.73,22.42,5.28,42.77,17.78,61.12,7.23,12.65,6.06,24.2-3.3,34.66-19.95,18.23-32.41,8.07-41.49-14.92,11.57,12.54,23.45,18.98,36.34,5.06,3.26-4.09,3.74-10.46-.36-20.61-5.06-8.21-9.4-16.91-12.74-26.31-6.73-16.35-8.43-33.04-3.65-50.17,8.81-30.87,23.83-44.75,41.2-52.2,16.84-6.24,23.27,5.26,25.67,23.63h0Zm-62.59,2.38c-2.79,5.28-5.32,11.14-7.65,17.47l-5.88-25.34-13.68,59.03,13.68,59.03,7.33-31.62c2.32,6.29,4.93,12.17,7.84,17.66l-7.66,28.31c-4.91-2.3-9.47-5.73-13.59-10.54l-3.71,2.12-14.86-54.91,3.61-10.05-3.6-10.12,24.63-91.03,13.52,49.98h0Zm-14.62,23.25l-6.54,27.91,6.53,27.71c1.26-5.85,2.26-12.49,2.84-20.43-1.34-7.63-1.66-15.44-.79-23.43l-2.03-11.76Zm13.96-69.59c-.25-13.71.04-27.55-39.04-32.05,1.2,14.64,6.56,26.5,14.31,36.77-7.19,4.05-20.29-1.16-40.45-17.42,7.4,3.69,15.24,6.05,23.59,6.86l-6.04-21.49C187.6,1.89,191.95-.11,197.53,0c38.74,4.79,43.47,21.52,39.22,41.41Zm-29.06,33.17l-4.37,15.29c-7.95-13.87-17.3-23.93-28.27-29.59l-5.86-17.22c14.95,5.3,27.81,15.73,38.49,31.52h0Zm-4.2,113.06l4.2,15.61c-12.75,18.51-25.65,27.91-38.49,31.52l5.88-17.23c11.51-6.22,20.93-16.3,28.42-29.9h0Zm.79,35.27c5.24,2.79,10.21,5.9,14.63,9.64,3.81,3.09,3.42,6.88.52,11.11-5.67,7.41-10.12,15.63-13.32,24.68-.85-7.67,1-17.34,5.05-28.64-1.05-6.13-3.51-11.65-6.89-16.79h0Zm-18.29,37.85c1.09-5.41,4.13-10.8,8.54-16.19-4.56-5.06-10.25-6.36-17.17-3.52,4.4-5.64,10.97-8.17,21.46-5.06,5.22,2.61,6.09,6.25,2.31,10.99-4.7,5.58-9.67,10.39-15.14,13.78h0Zm-18.76-5.64c-.43-2.96-.46-6.12-.08-9.5.85-6.36,11.36-2.54,7.52,3.13-2.07,3.06-4.93,4.79-7.44,6.37Z"/>
    </symbol>

    <symbol id="faction-adam" viewBox="0 0 299.68 300">
        <path d="m0,140.37C3.01,92.15,28.78,50.1,66.7,24.84l16.15,27.97c-14.1,9.73-25.99,22.46-34.71,37.24-9.04,15.33-14.47,32.56-15.9,50.33H0Zm200.42,116.08c-16.1,7.65-33.74,11.56-51.54,11.4-17.15-.16-34.12-4.1-49.6-11.44l-16.16,27.99c20.1,9.99,42.75,15.6,66.72,15.6s46.62-5.61,66.71-15.6l-16.13-27.95Zm16.44-203.69c14.68,10.12,26.89,23.44,35.64,38.93,8.43,14.94,13.51,31.6,14.89,48.68h32.29c-3.01-48.22-28.78-90.28-66.7-115.54l-16.12,27.93Zm-104.43,144.24c9.95-5.74,13.37-18.5,7.62-28.45-2.78-4.82-7.27-8.26-12.65-9.7-1.79-.48-3.62-.72-5.42-.72-3.61,0-7.17.95-10.38,2.8-9.95,5.74-13.37,18.51-7.62,28.45h0c5.74,9.95,18.51,13.36,28.45,7.62Zm95.65-36.58c-3.27-1.89-6.85-2.79-10.38-2.79-7.2,0-14.22,3.74-18.07,10.41-5.74,9.95-2.32,22.71,7.62,28.45,4.82,2.78,10.43,3.52,15.8,2.08,5.37-1.44,9.87-4.89,12.65-9.7h0c2.78-4.82,3.52-10.43,2.08-15.8-1.44-5.37-4.89-9.87-9.7-12.65Zm27.85,29.16c2.02-6.92,2.13-14.28.21-21.43-2.75-10.28-9.35-18.87-18.56-24.19-19.02-10.98-43.43-4.44-54.41,14.58-10.98,19.02-4.44,43.43,14.58,54.41,6.14,3.54,12.95,5.35,19.85,5.35,3.46,0,6.94-.46,10.37-1.38,7.14-1.91,13.47-5.68,18.45-10.9l47.96,27.69c-10.97,16.27-25.06,30.27-41.39,41.16l-20.68-35.83c-1.26-2.18-3.34-3.78-5.77-4.43-2.44-.65-5.03-.31-7.21.95-30.5,17.61-68.43,17.59-98.98-.04-4.51-2.6-10.27-1.09-12.92,3.38l-.02.04s-.04.06-.06.1l-20.68,35.82c-16.21-10.8-30.2-24.67-41.14-40.78l47.73-27.56c7.6,7.93,18.1,12.25,28.82,12.25,6.75,0,13.59-1.72,19.85-5.33,19.02-10.98,25.56-35.39,14.58-54.41-5.32-9.21-13.91-15.8-24.18-18.56-10.28-2.75-21.01-1.34-30.23,3.98-16.18,9.34-23.33,28.41-18.34,45.6l-47.88,27.65C6.89,200.01,1.31,180.27,0,159.38h41.35c5.25,0,9.5-4.25,9.5-9.5,0-35.22,18.98-68.06,49.52-85.7,2.18-1.26,3.78-3.34,4.43-5.78.65-2.44.31-5.03-.96-7.22l-20.71-35.87C100.44,6.73,119.62,1.38,139.9.05v57.14c-17.39,4.28-30.33,20-30.33,38.69,0,21.96,17.87,39.83,39.83,39.83s39.83-17.87,39.83-39.83c0-18.69-12.94-34.41-30.33-38.69V0c20.61,1.23,40.09,6.61,57.63,15.32l-20.69,35.84c-1.26,2.18-1.6,4.78-.95,7.21.65,2.43,2.24,4.51,4.43,5.77,30.5,17.61,49.45,50.46,49.45,85.74,0,5.25,4.25,9.5,9.5,9.5h41.41c-1.3,20.74-6.81,40.34-15.68,57.95l-48.07-27.76Zm-86.52-114.52c-11.48,0-20.83,9.34-20.83,20.83s9.34,20.83,20.83,20.83,20.83-9.34,20.83-20.83-9.34-20.83-20.83-20.83Z"/>
    </symbol>

</svg>